<?xml version="1.0" encoding="utf-8"?>
<!-- Generator: Adobe Illustrator 17.0.0, SVG Export Plug-In . SVG Version: 6.00 Build 0)  -->
<!DOCTYPE svg PUBLIC "-//W3C//DTD SVG 1.1//EN" "http://www.w3.org/Graphics/SVG/1.1/DTD/svg11.dtd">
<svg version="1.1" id="Layer_1" xmlns="http://www.w3.org/2000/svg" xmlns:xlink="http://www.w3.org/1999/xlink" x="0px" y="0px"
	 width="64px" height="64px" viewBox="0 0 64 64" enable-background="new 0 0 64 64" xml:space="preserve">
<g enable-background="new    ">
	<path fill="#58595B" d="M58.316,6.699l1.422,2.033c-5.799,4.364-12.25,11.085-19.352,20.165S27.865,46.46,24.125,54.347
		l-3.008,2.033c-2.494,1.734-4.188,3.022-5.082,3.862c-0.353-1.274-1.125-3.36-2.317-6.261l-1.138-2.643
		c-1.626-3.795-3.137-6.6-4.533-8.416c-1.396-1.815-2.961-3.021-4.695-3.618c2.927-3.09,5.61-4.635,8.05-4.635
		c2.086,0,4.404,2.832,6.952,8.497l1.26,2.846c4.58-7.725,10.461-15.232,17.644-22.523C44.439,16.199,51.459,10.602,58.316,6.699z"
		/>
</g>
<rect x="1.483" y="2" fill="none" stroke="#58595B" stroke-width="3" stroke-miterlimit="10" width="61.034" height="60"/>
</svg>
