<?xml version="1.0" encoding="utf-8"?>
<!-- Generator: Adobe Illustrator 17.0.0, SVG Export Plug-In . SVG Version: 6.00 Build 0)  -->
<!DOCTYPE svg PUBLIC "-//W3C//DTD SVG 1.1//EN" "http://www.w3.org/Graphics/SVG/1.1/DTD/svg11.dtd">
<svg version="1.1" id="Layer_1" xmlns="http://www.w3.org/2000/svg" xmlns:xlink="http://www.w3.org/1999/xlink" x="0px" y="0px"
	 width="16px" height="16px" viewBox="0 0 16 16" enable-background="new 0 0 16 16" xml:space="preserve">
<g>
	<g>
		<g>
			<g>
				<path fill="#58595B" d="M12.522,1.756v1.211h-2.018V1.756h-5.45v1.211H3.035V1.756H0.417v1.823v12.345h9.186l5.617-5.219V3.579
					V1.756H12.522z M14.117,10.424H9.393v4.587H1.572V4.493h12.545V10.424z"/>
			</g>
		</g>
	</g>
	<g>
		<g>
			<path fill="#58595B" d="M4.765,0.781c0-0.39-0.316-0.706-0.705-0.706c-0.391,0-0.707,0.315-0.707,0.706v1.918h1.412V0.781z"/>
		</g>
	</g>
	<g>
		<g>
			<path fill="#58595B" d="M12.211,0.781c0-0.39-0.317-0.706-0.707-0.706c-0.389,0-0.705,0.315-0.705,0.706v1.918h1.413V0.781z"/>
		</g>
	</g>
	<rect x="3.029" y="6.152" fill="#58595B" width="2.059" height="1.794"/>
	<rect x="5.735" y="6.152" fill="#58595B" width="2.06" height="1.794"/>
	<rect x="8.442" y="6.152" fill="#58595B" width="2.059" height="1.794"/>
	<rect x="11.147" y="6.152" fill="#58595B" width="2.06" height="1.794"/>
	<rect x="3.029" y="9.338" fill="#58595B" width="2.059" height="1.794"/>
	<rect x="5.735" y="9.338" fill="#58595B" width="2.06" height="1.794"/>
</g>
</svg>
