<?xml version="1.0" encoding="utf-8"?>
<!-- Generator: Adobe Illustrator 17.0.0, SVG Export Plug-In . SVG Version: 6.00 Build 0)  -->
<!DOCTYPE svg PUBLIC "-//W3C//DTD SVG 1.1//EN" "http://www.w3.org/Graphics/SVG/1.1/DTD/svg11.dtd">
<svg version="1.1" id="Layer_1" xmlns="http://www.w3.org/2000/svg" xmlns:xlink="http://www.w3.org/1999/xlink" x="0px" y="0px"
	 width="16px" height="16px" viewBox="0 0 16 16" enable-background="new 0 0 16 16" xml:space="preserve">
<g>
	<g>
		<path fill="#58595B" d="M11.934,10.352c-0.215,0.297-0.448,0.589-0.723,0.859c-0.271,0.273-0.563,0.507-0.86,0.724l3.781,3.78
			l1.582-1.583L11.934,10.352z"/>
		<path fill="#58595B" d="M11.491,9.231c1.296-2.286,0.975-5.242-0.976-7.192c-2.34-2.339-6.134-2.339-8.472,0
			C-0.3,4.38-0.3,8.173,2.039,10.514c1.952,1.948,4.906,2.272,7.193,0.977c0.137-0.081,0.269-0.178,0.408-0.269
			c0.302-0.208,0.599-0.436,0.874-0.708c0.27-0.273,0.499-0.567,0.71-0.876C11.312,9.502,11.412,9.37,11.491,9.231z M2.956,9.597
			c-1.832-1.836-1.832-4.807,0-6.641c1.834-1.833,4.808-1.833,6.642,0c1.832,1.833,1.832,4.805,0,6.641
			C7.764,11.431,4.79,11.429,2.956,9.597z"/>
	</g>
</g>
</svg>
