<?xml version="1.0" encoding="utf-8"?>
<!-- Generator: Adobe Illustrator 17.0.0, SVG Export Plug-In . SVG Version: 6.00 Build 0)  -->
<!DOCTYPE svg PUBLIC "-//W3C//DTD SVG 1.1//EN" "http://www.w3.org/Graphics/SVG/1.1/DTD/svg11.dtd">
<svg version="1.1" id="Layer_1" xmlns="http://www.w3.org/2000/svg" xmlns:xlink="http://www.w3.org/1999/xlink" x="0px" y="0px"
	 width="13.719px" height="13.656px" viewBox="0 0 13.719 13.656" enable-background="new 0 0 13.719 13.656" xml:space="preserve">
<g>
	<path fill="#404041" d="M11.832,11.335c2.384-2.623,2.317-6.678-0.216-9.211c-2.61-2.61-6.841-2.61-9.451,0
		C1.62,2.667,1.197,3.286,0.88,3.942C-0.324,6.43,0.1,9.509,2.166,11.574c2.61,2.61,6.841,2.609,9.45,0
		C11.693,11.497,11.76,11.414,11.832,11.335z M4.838,10.035c-0.313,0.313-0.82,0.313-1.133,0c-0.313-0.313-0.313-0.822,0-1.134
		l1.289-1.289l0.763-0.764L3.705,4.796c-0.313-0.313-0.313-0.82,0-1.133c0.313-0.314,0.82-0.314,1.134,0l2.053,2.052l2.053-2.052
		c0.313-0.314,0.821-0.314,1.134,0c0.313,0.313,0.313,0.82,0,1.133L8.024,6.848l2.053,2.053c0.313,0.313,0.313,0.82,0,1.134
		c-0.313,0.313-0.82,0.313-1.133,0L6.891,7.982L6.305,8.567L4.838,10.035z"/>
</g>
</svg>
