<?xml version="1.0" encoding="utf-8"?>
<!-- Generator: Adobe Illustrator 17.0.0, SVG Export Plug-In . SVG Version: 6.00 Build 0)  -->
<!DOCTYPE svg PUBLIC "-//W3C//DTD SVG 1.1//EN" "http://www.w3.org/Graphics/SVG/1.1/DTD/svg11.dtd">
<svg version="1.1" id="Layer_1" xmlns="http://www.w3.org/2000/svg" xmlns:xlink="http://www.w3.org/1999/xlink" x="0px" y="0px"
	 width="16px" height="16px" viewBox="0 0 16 16" enable-background="new 0 0 16 16" xml:space="preserve">
<g>
	
		<linearGradient id="SVGID_1_" gradientUnits="userSpaceOnUse" x1="274.9854" y1="-389.762" x2="287.688" y2="-389.762" gradientTransform="matrix(-1 0 0 -1 290.831 -382.635)">
		<stop  offset="0" style="stop-color:#8DC63F"/>
		<stop  offset="1" style="stop-color:#8DC63F;stop-opacity:0.2"/>
	</linearGradient>
	<path fill="url(#SVGID_1_)" d="M15.426,5.394c0.76,2.249,0.454,4.6-0.646,6.507c-0.169,0.372-0.418,0.715-0.715,1.04
		c-0.01,0.011-0.018,0.023-0.028,0.034l-0.002-0.002c-0.06,0.065-0.123,0.13-0.187,0.194l1.235,1.087l-4.099-0.435l-0.941-4.007
		l1.223,1.078c0.101-0.09,0.2-0.182,0.298-0.274c0.835-1.14,1.126-2.652,0.653-4.093L12.059,6.11c-0.407-0.93-1.1-1.663-1.938-2.13
		l0.003-0.003C9.046,3.376,7.728,3.216,6.467,3.642C6.155,3.748,5.863,3.884,5.591,4.046L5.065,1.803L3.143,1.599
		c0.659-0.498,1.409-0.9,2.234-1.179c3.729-1.261,7.742,0.41,9.536,3.772c0.141,0.231,0.256,0.484,0.352,0.753
		C15.327,5.098,15.374,5.238,15.426,5.394z"/>
	
		<linearGradient id="SVGID_2_" gradientUnits="userSpaceOnUse" x1="290.4348" y1="-391.4256" x2="277.7316" y2="-391.385" gradientTransform="matrix(-1 0 0 -1 290.831 -382.635)">
		<stop  offset="0" style="stop-color:#8DC63F"/>
		<stop  offset="1" style="stop-color:#8DC63F;stop-opacity:0.2"/>
	</linearGradient>
	<path fill="url(#SVGID_2_)" d="M0.42,10.512c-0.76-2.249-0.454-4.601,0.646-6.507c0.169-0.372,0.417-0.715,0.715-1.04
		C1.79,2.954,1.8,2.942,1.809,2.931l0.002,0.002c0.061-0.065,0.123-0.13,0.187-0.194L0.764,1.652l4.099,0.434l0.941,4.007
		L4.581,5.015c-0.101,0.091-0.2,0.182-0.298,0.274c-0.836,1.14-1.127,2.652-0.654,4.093l0.158,0.413
		c0.408,0.93,1.101,1.663,1.939,2.13l-0.003,0.002c1.078,0.6,2.396,0.761,3.657,0.335c0.312-0.105,0.604-0.242,0.876-0.404
		l0.526,2.243l1.922,0.204c-0.659,0.497-1.409,0.9-2.234,1.179c-3.728,1.261-7.741-0.41-9.535-3.772
		c-0.142-0.231-0.257-0.484-0.353-0.753C0.52,10.806,0.474,10.666,0.42,10.512z"/>
</g>
</svg>
