<?xml version="1.0" encoding="utf-8"?>
<!-- Generator: Adobe Illustrator 17.0.0, SVG Export Plug-In . SVG Version: 6.00 Build 0)  -->
<!DOCTYPE svg PUBLIC "-//W3C//DTD SVG 1.1//EN" "http://www.w3.org/Graphics/SVG/1.1/DTD/svg11.dtd">
<svg version="1.1" id="Layer_1" xmlns="http://www.w3.org/2000/svg" xmlns:xlink="http://www.w3.org/1999/xlink" x="0px" y="0px"
	 width="24px" height="24px" viewBox="0 0 24 24" enable-background="new 0 0 24 24" xml:space="preserve">
<path fill="#414042" d="M12,19.283c-3.975,0-7.2-3.225-7.2-7.2h2.4l-3.6-3.6l-3.6,3.6h2.4c0,5.3,4.3,9.6,9.6,9.6
	c2.957,0,5.599-1.339,7.359-3.441l-1.708-1.708C16.333,18.206,14.295,19.283,12,19.283z M21.6,12.083c0-5.3-4.297-9.6-9.6-9.6
	c-2.956,0-5.598,1.339-7.359,3.441l1.707,1.707C7.667,5.96,9.706,4.883,12,4.883c3.977,0,7.2,3.223,7.2,7.2h-2.4l3.6,3.6l3.6-3.6
	H21.6z"/>
</svg>
