<?xml version="1.0" encoding="utf-8"?>
<!-- Generator: Adobe Illustrator 17.0.0, SVG Export Plug-In . SVG Version: 6.00 Build 0)  -->
<!DOCTYPE svg PUBLIC "-//W3C//DTD SVG 1.1//EN" "http://www.w3.org/Graphics/SVG/1.1/DTD/svg11.dtd">
<svg version="1.1" id="Layer_1" xmlns="http://www.w3.org/2000/svg" xmlns:xlink="http://www.w3.org/1999/xlink" x="0px" y="0px"
	 width="16px" height="16px" viewBox="0 0 16 16" enable-background="new 0 0 16 16" xml:space="preserve">
<g>
	<path fill="#414042" d="M8,2.425c0.427,0,0.798,0.219,1.021,0.545c0.026,0.037,0.044,0.074,0.067,0.119l0,0l0,0
		C9.08,3.071,9.076,3.056,9.065,3.044l5.106,8.12c0,0,0.316,0.464,0.316,0.846c0,0.679-0.549,1.232-1.228,1.232H2.749
		c-0.683,0-1.236-0.553-1.236-1.232c0-0.368,0.149-0.594,0.152-0.594c0,0,0.063-0.104,0.067-0.104l0.067-0.108l0.141-0.226
		l4.972-7.911c0.022-0.033,0.045-0.07,0.067-0.104C7.202,2.637,7.573,2.425,8,2.425 M8,1C7.12,1,6.304,1.43,5.811,2.146
		c-0.044,0.067-0.085,0.13-0.122,0.197l-4.954,7.882l-0.141,0.223l-0.067,0.104l0,0c-0.011,0.019-0.026,0.037-0.037,0.056
		c-0.271,0.386-0.401,0.902-0.401,1.403c0,1.462,1.195,2.657,2.661,2.657h10.509c1.462,0,2.653-1.195,2.653-2.657
		c0-0.731-0.393-1.399-0.545-1.622l-5.091-8.104l0,0c-0.026-0.037-0.052-0.078-0.078-0.119C9.707,1.438,8.883,1,8,1L8,1z"/>
	<polyline fill="#414042" points="8.104,3.764 7.143,5.446 7.525,11.027 8.686,11.03 9.072,5.446 	"/>
	<rect x="7.525" y="11.579" fill="#414042" width="1.162" height="1.139"/>
</g>
</svg>
