<?xml version="1.0" encoding="utf-8"?>
<!-- Generator: Adobe Illustrator 21.0.0, SVG Export Plug-In . SVG Version: 6.00 Build 0)  -->
<svg version="1.1" id="Layer_1" xmlns="http://www.w3.org/2000/svg" xmlns:xlink="http://www.w3.org/1999/xlink" x="0px" y="0px"
	 width="64px" height="64px" viewBox="0 0 64 64" enable-background="new 0 0 64 64" xml:space="preserve">
<path fill="#FFFFFF" stroke="#000000" stroke-miterlimit="10" d="M32.1,60c-0.3,0-0.5-0.1-0.8-0.2c-0.3-0.2-7.6-4.3-15-11
	c-4.4-4-7.9-8-10.4-12.1C2.6,31.6,1,26.5,1,21.5C1,12,8.7,4.3,18.2,4.3c3.2,0,6.6,1.2,9.6,3.4c1.7,1.3,3.2,2.8,4.3,4.5
	c1.1-1.6,2.6-3.2,4.3-4.5c3-2.2,6.4-3.4,9.6-3.4c9.5,0,17.2,7.7,17.2,17.2c0,5-1.6,10.1-4.9,15.3c-2.5,4-6,8.1-10.4,12.1
	c-7.4,6.7-14.7,10.8-15,11C32.7,59.9,32.4,60,32.1,60L32.1,60z"/>
<g>
</g>
<g>
</g>
<g>
</g>
<g>
</g>
<g>
</g>
<g>
</g>
<g>
</g>
<g>
</g>
<g>
</g>
<g>
</g>
<g>
</g>
<g>
</g>
<g>
</g>
<g>
</g>
<g>
</g>
</svg>
