<?xml version="1.0" encoding="utf-8"?>
<!-- Generator: Adobe Illustrator 21.0.0, SVG Export Plug-In . SVG Version: 6.00 Build 0)  -->
<svg version="1.1" id="Layer_1" xmlns="http://www.w3.org/2000/svg" xmlns:xlink="http://www.w3.org/1999/xlink" x="0px" y="0px"
	 width="64px" height="64px" viewBox="0 0 64 64" enable-background="new 0 0 64 64" xml:space="preserve">
<path fill="#FFFFFF" stroke="#000000" stroke-miterlimit="10" d="M57.5,1.1H41.2c-2.5,0-5.7,1.3-7.5,3.1L2.6,35.3
	c-1,1-1.6,2.4-1.6,3.8S1.6,42,2.6,43L21,61.4c1,1,2.4,1.6,3.8,1.6v0c1.5,0,2.8-0.6,3.8-1.6l31.1-31.1c1.8-1.8,3.1-5,3.1-7.5V6.5
	C62.9,3.5,60.5,1.1,57.5,1.1z M50,19.5c-3,0-5.5-2.5-5.5-5.5c0-2,1-3.7,2.6-4.7c0.9-0.6,2-1,3.1-1c3,0,5.4,2.4,5.4,5.4
	c0,1.2-0.4,2.2-1,3.1C53.7,18.5,52,19.5,50,19.5z"/>
<g>
</g>
<g>
</g>
<g>
</g>
<g>
</g>
<g>
</g>
<g>
</g>
<g>
</g>
<g>
</g>
<g>
</g>
<g>
</g>
<g>
</g>
<g>
</g>
<g>
</g>
<g>
</g>
<g>
</g>
</svg>
