<?xml version="1.0" encoding="utf-8"?>
<!-- Generator: Adobe Illustrator 21.0.0, SVG Export Plug-In . SVG Version: 6.00 Build 0)  -->
<svg version="1.1" id="Layer_1" xmlns="http://www.w3.org/2000/svg" xmlns:xlink="http://www.w3.org/1999/xlink" x="0px" y="0px"
	 width="64px" height="64px" viewBox="0 0 64 64" enable-background="new 0 0 64 64" xml:space="preserve">
<path fill="#FFFFFF" stroke="#000000" stroke-miterlimit="10" d="M53.9,1H10.1C5.1,1,1,5.1,1,10.1v43.8c0,5,4.1,9.1,9.1,9.1h43.8
	c5,0,9.1-4.1,9.1-9.1V10.1C63,5.1,58.9,1,53.9,1z M17.4,52.1c-3,0-5.5-2.5-5.5-5.5s2.5-5.5,5.5-5.5s5.5,2.5,5.5,5.5
	S20.4,52.1,17.4,52.1z M20.3,36.6c0,0-0.1,0-0.1,0.1c-0.1,0.1-0.3,0.1-0.4,0.2c-0.7,0.4-1.5,0.6-2.3,0.6c-0.2,0-0.3,0-0.5-0.1
	c-0.1,0-0.2,0-0.3,0c-0.1,0-0.2,0-0.3,0c-2.5-0.5-4.5-2.7-4.5-5.4c0-3,2.5-5.5,5.5-5.5s5.5,2.5,5.5,5.5
	C22.9,33.9,21.9,35.7,20.3,36.6z M17.4,22.9c-3,0-5.5-2.5-5.5-5.5s2.5-5.5,5.5-5.5s5.5,2.5,5.5,5.5S20.4,22.9,17.4,22.9z M46.6,52.1
	c-3,0-5.5-2.5-5.5-5.5s2.5-5.5,5.5-5.5s5.5,2.5,5.5,5.5S49.6,52.1,46.6,52.1z M47.6,37.4c-0.1,0-0.2,0-0.3,0c-0.1,0-0.2,0-0.3,0
	c-0.2,0-0.3,0.1-0.5,0.1c-0.8,0-1.6-0.2-2.3-0.6c-0.1-0.1-0.3-0.1-0.4-0.2c0,0-0.1,0-0.1-0.1c-1.5-1-2.6-2.7-2.6-4.6
	c0-3,2.5-5.5,5.5-5.5s5.5,2.5,5.5,5.5C52.1,34.7,50.1,36.9,47.6,37.4z M46.6,22.9c-3,0-5.5-2.5-5.5-5.5s2.5-5.5,5.5-5.5
	s5.5,2.5,5.5,5.5S49.6,22.9,46.6,22.9z"/>
<g>
</g>
<g>
</g>
<g>
</g>
<g>
</g>
<g>
</g>
<g>
</g>
<g>
</g>
<g>
</g>
<g>
</g>
<g>
</g>
<g>
</g>
<g>
</g>
<g>
</g>
<g>
</g>
<g>
</g>
</svg>
