<?xml version="1.0" encoding="utf-8"?>
<!-- Generator: Adobe Illustrator 21.0.0, SVG Export Plug-In . SVG Version: 6.00 Build 0)  -->
<svg version="1.1" id="Layer_1" xmlns="http://www.w3.org/2000/svg" xmlns:xlink="http://www.w3.org/1999/xlink" x="0px" y="0px"
	 width="64px" height="64px" viewBox="0 0 64 64" enable-background="new 0 0 64 64" xml:space="preserve">
<path fill="#FFFFFF" stroke="#000000" stroke-miterlimit="10" d="M50.6,50.6h-31C9.3,50.6,1,42.3,1,32s8.3-18.6,18.6-18.6
	c5,0,9.7,2,13.2,5.5c0.3-0.6,0.6-1.2,1-1.7c1.7-2.4,4.5-3.8,7.5-3.8c5.1,0,9.3,4.2,9.3,9.3c0,1.1-0.2,2.2-0.6,3.2c0.2,0,0.4,0,0.6,0
	c6.8,0,12.4,5.6,12.4,12.4S57.4,50.6,50.6,50.6L50.6,50.6z"/>
<g>
</g>
<g>
</g>
<g>
</g>
<g>
</g>
<g>
</g>
<g>
</g>
<g>
</g>
<g>
</g>
<g>
</g>
<g>
</g>
<g>
</g>
<g>
</g>
<g>
</g>
<g>
</g>
<g>
</g>
</svg>
