<?xml version="1.0" encoding="utf-8"?>
<!-- Generator: Adobe Illustrator 21.0.0, SVG Export Plug-In . SVG Version: 6.00 Build 0)  -->
<svg version="1.1" id="Layer_1" xmlns="http://www.w3.org/2000/svg" xmlns:xlink="http://www.w3.org/1999/xlink" x="0px" y="0px"
	 width="64px" height="64px" viewBox="0 0 64 64" enable-background="new 0 0 64 64" xml:space="preserve">
<path fill="#FFFFFF" stroke="#000000" stroke-miterlimit="10" d="M32.8,63c-8.5,0-16.5-3.3-22.5-9.3S1,39.7,1,31.2
	c0-7,2.2-13.6,6.5-19c2-2.6,4.5-4.9,7.2-6.8c2.8-1.9,5.9-3.4,9.1-4.3c0.6-0.2,1.2,0,1.6,0.5s0.5,1.1,0.2,1.7
	c-2,3.9-2.9,7.6-2.9,11.7c0,14.5,11.8,26.3,26.3,26.3c4.1,0,7.8-0.9,11.7-2.9c0.6-0.3,1.2-0.2,1.7,0.2c0.5,0.4,0.7,1,0.5,1.6
	c-1,3.3-2.4,6.3-4.3,9.1c-1.9,2.8-4.2,5.2-6.8,7.2C46.3,60.8,39.8,63,32.8,63L32.8,63z"/>
<g>
</g>
<g>
</g>
<g>
</g>
<g>
</g>
<g>
</g>
<g>
</g>
<g>
</g>
<g>
</g>
<g>
</g>
<g>
</g>
<g>
</g>
<g>
</g>
<g>
</g>
<g>
</g>
<g>
</g>
</svg>
