<?xml version="1.0" encoding="utf-8"?>
<!-- Generator: Adobe Illustrator 21.0.0, SVG Export Plug-In . SVG Version: 6.00 Build 0)  -->
<svg version="1.1" id="Layer_1" xmlns="http://www.w3.org/2000/svg" xmlns:xlink="http://www.w3.org/1999/xlink" x="0px" y="0px"
	 width="64px" height="64px" viewBox="0 0 64 64" enable-background="new 0 0 64 64" xml:space="preserve">
<path fill="#FFFFFF" stroke="#000000" stroke-miterlimit="10" d="M62,20.8L43.2,2c-0.7-0.7-1.6-1-2.5-1s-1.8,0.4-2.5,1l-1,1
	c-1,1-1.8,2.8-1.8,4.3v3.5c0,0.5-0.4,1.4-0.7,1.8l-9.9,9.9c-0.4,0.4-1.3,0.7-1.8,0.7h-3.5c-1.5,0-3.2,0.7-4.3,1.8l-1,1
	c-1.4,1.4-1.4,3.6,0,5l5.5,5.5L2.2,59.4c-0.5,0.7-0.5,1.7,0.2,2.3c0.3,0.3,0.8,0.5,1.3,0.5c0.4,0,0.8-0.1,1.1-0.4l22.8-17.5l5.5,5.5
	c0.7,0.7,1.6,1,2.5,1s1.8-0.4,2.5-1l1-1c1-1,1.8-2.8,1.8-4.3V41c0-0.5,0.4-1.4,0.7-1.8l9.9-9.9c0.4-0.4,1.3-0.7,1.8-0.7h3.5
	c1.5,0,3.2-0.7,4.3-1.8l1-1c0.7-0.7,1-1.6,1-2.5C63,22.3,62.6,21.4,62,20.8L62,20.8z M13.2,50.8l9-11.7l2.7,2.7L13.2,50.8z"/>
<g>
</g>
<g>
</g>
<g>
</g>
<g>
</g>
<g>
</g>
<g>
</g>
<g>
</g>
<g>
</g>
<g>
</g>
<g>
</g>
<g>
</g>
<g>
</g>
<g>
</g>
<g>
</g>
<g>
</g>
</svg>
