<?xml version="1.0" encoding="utf-8"?>
<!-- Generator: Adobe Illustrator 21.0.0, SVG Export Plug-In . SVG Version: 6.00 Build 0)  -->
<svg version="1.1" id="Layer_1" xmlns="http://www.w3.org/2000/svg" xmlns:xlink="http://www.w3.org/1999/xlink" x="0px" y="0px"
	 width="64px" height="64px" viewBox="0 0 64 64" enable-background="new 0 0 64 64" xml:space="preserve">
<path fill="#FFFFFF" stroke="#000000" stroke-miterlimit="10" d="M2.6,60c-0.7,0-1.4-0.5-1.6-1.2s0.1-1.5,0.7-1.8
	c5.5-3.3,7.8-8.2,8.7-10.4C4.4,42,1,35.6,1,28.9c0-3.4,0.8-6.6,2.5-9.7c1.6-2.9,3.9-5.6,6.8-7.8c5.9-4.6,13.6-7.1,21.8-7.1
	s16,2.5,21.8,7.1c2.9,2.2,5.2,4.9,6.8,7.8c1.7,3.1,2.5,6.3,2.5,9.7s-0.8,6.6-2.5,9.7c-1.6,2.9-3.9,5.6-6.8,7.8
	C48,51,40.3,53.5,32.1,53.5c-3.4,0-6.7-0.4-9.9-1.3c-1.4,0.9-4,2.6-7.2,4.2C10.2,58.8,6,60,2.6,60L2.6,60z"/>
</svg>
