<?xml version="1.0" encoding="utf-8"?>
<!-- Generator: Adobe Illustrator 21.0.0, SVG Export Plug-In . SVG Version: 6.00 Build 0)  -->
<svg version="1.1" id="Layer_1" xmlns="http://www.w3.org/2000/svg" xmlns:xlink="http://www.w3.org/1999/xlink" x="0px" y="0px"
	 width="64px" height="64px" viewBox="0 0 64 64" enable-background="new 0 0 64 64" xml:space="preserve">
<path fill="#FFFFFF" stroke="#000000" stroke-miterlimit="10" d="M51.1,62c-0.3,0-0.6-0.1-0.8-0.2l-18.2-9.9l-18.2,9.9
	c-0.6,0.3-1.3,0.3-1.8-0.1c-0.5-0.4-0.8-1-0.7-1.7l3.3-19.9L1.5,26.9c-0.5-0.5-0.6-1.1-0.4-1.7c0.2-0.6,0.7-1.1,1.4-1.2l19.9-3.3
	l8.2-16.5c0.3-0.6,0.9-1,1.5-1c0.7,0,1.3,0.4,1.5,1l8.2,16.5L61.8,24c0.6,0.1,1.2,0.6,1.4,1.2s0,1.3-0.4,1.7L49.5,40.1L52.8,60
	c0.1,0.7-0.2,1.3-0.7,1.7C51.8,61.9,51.5,62,51.1,62z"/>
<g>
</g>
<g>
</g>
<g>
</g>
<g>
</g>
<g>
</g>
<g>
</g>
<g>
</g>
<g>
</g>
<g>
</g>
<g>
</g>
<g>
</g>
<g>
</g>
<g>
</g>
<g>
</g>
<g>
</g>
</svg>
