<?xml version="1.0" encoding="utf-8"?>
<!-- Generator: Adobe Illustrator 21.0.0, SVG Export Plug-In . SVG Version: 6.00 Build 0)  -->
<svg version="1.1" id="Layer_1" xmlns="http://www.w3.org/2000/svg" xmlns:xlink="http://www.w3.org/1999/xlink" x="0px" y="0px"
	 width="64px" height="64px" viewBox="0 0 64 64" enable-background="new 0 0 64 64" xml:space="preserve">
<path fill="#FFFFFF" stroke="#000000" stroke-miterlimit="10" d="M56.7,49c-3.8-2.9-6-7.2-6-12V27c0-8.4-5.6-15.5-13.3-17.6V7
	c0-2.8-2.2-5-5-5s-5,2.2-5,5v2.4C19.6,11.5,14,18.6,14,27v10c0,4.8-2.2,9.1-6,12c-0.6,0.4-0.8,1.2-0.6,1.9C7.6,51.5,8.3,52,9,52
	h15.2c-0.1,0.5-0.2,1.1-0.2,1.7c0,4.6,3.7,8.3,8.3,8.3s8.3-3.7,8.3-8.3c0-0.6-0.1-1.1-0.2-1.7h15.2c0.7,0,1.4-0.5,1.6-1.1
	C57.5,50.2,57.2,49.4,56.7,49L56.7,49z M30.7,7c0-0.9,0.7-1.7,1.7-1.7S34,6.1,34,7v1.7c-0.5,0-1.1-0.1-1.7-0.1s-1.1,0-1.7,0.1V7z"/>
<g>
</g>
<g>
</g>
<g>
</g>
<g>
</g>
<g>
</g>
<g>
</g>
<g>
</g>
<g>
</g>
<g>
</g>
<g>
</g>
<g>
</g>
<g>
</g>
<g>
</g>
<g>
</g>
<g>
</g>
</svg>
