<?xml version="1.0" encoding="utf-8"?>
<!-- Generator: Adobe Illustrator 21.0.0, SVG Export Plug-In . SVG Version: 6.00 Build 0)  -->
<svg version="1.1" id="Layer_1" xmlns="http://www.w3.org/2000/svg" xmlns:xlink="http://www.w3.org/1999/xlink" x="0px" y="0px"
	 width="64px" height="64px" viewBox="0 0 64 64" enable-background="new 0 0 64 64" xml:space="preserve">
<path fill="#FFFFFF" stroke="#000000" stroke-width="0.25" stroke-miterlimit="10" d="M58.3,15.6H44.4v-4.7c0-2.6-2.1-4.6-4.7-4.6
	H24.3c-2.6,0-4.6,2.1-4.6,4.6v4.7h-14c-2.6,0-4.7,2.1-4.7,4.7v34.1C1,56.9,3.1,59,5.7,59h52.7c2.6,0,4.7-2.1,4.7-4.7V20.2
	C63,17.6,60.9,15.6,58.3,15.6z M22.7,10.9c0-0.9,0.7-1.5,1.5-1.5h15.5c0.9,0,1.5,0.7,1.5,1.5v4.7H22.7V10.9z M5.7,18.6h52.7
	c0.9,0,1.6,0.7,1.6,1.6v23.3h-6.2v-1.5c0-0.9-0.7-1.6-1.5-1.6H46c-0.9,0-1.5,0.7-1.5,1.6v1.5H19.6v-1.5c0-0.9-0.7-1.6-1.6-1.6h-6.2
	c-0.9,0-1.6,0.7-1.6,1.6v1.5H4.1V20.2C4.1,19.3,4.8,18.6,5.7,18.6z M50.6,43.5v3.1h-3.1v-3.1H50.6z M16.5,43.5v3.1h-3.1v-3.1H16.5z
	 M58.3,55.8H5.7c-0.9,0-1.6-0.7-1.6-1.5v-7.8h6.2v1.5c0,0.9,0.7,1.6,1.6,1.6H18c0.9,0,1.6-0.7,1.6-1.6v-1.5h24.8v1.5
	c0,0.9,0.7,1.6,1.5,1.6h6.2c0.9,0,1.5-0.7,1.5-1.6v-1.5h6.2v7.8C59.9,55.2,59.2,55.8,58.3,55.8z"/>
<g>
</g>
<g>
</g>
<g>
</g>
<g>
</g>
<g>
</g>
<g>
</g>
<g>
</g>
<g>
</g>
<g>
</g>
<g>
</g>
<g>
</g>
<g>
</g>
<g>
</g>
<g>
</g>
<g>
</g>
</svg>
