<?xml version="1.0" encoding="utf-8"?>
<!-- Generator: Adobe Illustrator 21.0.0, SVG Export Plug-In . SVG Version: 6.00 Build 0)  -->
<svg version="1.1" id="Layer_1" xmlns="http://www.w3.org/2000/svg" xmlns:xlink="http://www.w3.org/1999/xlink" x="0px" y="0px"
	 width="64px" height="64px" viewBox="0 0 64 64" enable-background="new 0 0 64 64" xml:space="preserve">
<path fill="#FFFFFF" stroke="#000000" stroke-miterlimit="10" d="M54.7,13.4c-1.1,0-2.2,0.3-3.1,0.8v-3.9c0-3.4-2.8-6.2-6.2-6.2
	c-1.3,0-2.5,0.4-3.5,1.1C41.1,2.7,38.8,1,36.1,1c-2.7,0-5,1.7-5.8,4.2c-1-0.7-2.2-1.1-3.5-1.1c-3.4,0-6.2,2.8-6.2,6.2v22.9l-4.2-7.2
	c-0.8-1.5-2.1-2.5-3.7-3c-1.5-0.4-3.2-0.2-4.5,0.6c-2.8,1.7-3.9,5.5-2.4,8.5c0.1,0.2,2.1,4.2,8.2,16.6c2.9,5.8,6.1,10,9.5,12.4
	c2.7,1.9,4.5,2,4.8,2h15.5c2.6,0,5.1-0.9,7.3-2.5c2.1-1.6,3.9-3.9,5.3-6.8c2.9-5.8,4.4-13.8,4.4-23.2V19.6
	C60.9,16.2,58.1,13.4,54.7,13.4L54.7,13.4z"/>
<g>
</g>
<g>
</g>
<g>
</g>
<g>
</g>
<g>
</g>
<g>
</g>
<g>
</g>
<g>
</g>
<g>
</g>
<g>
</g>
<g>
</g>
<g>
</g>
<g>
</g>
<g>
</g>
<g>
</g>
</svg>
