<?xml version="1.0" encoding="utf-8"?>
<!-- Generator: Adobe Illustrator 21.0.0, SVG Export Plug-In . SVG Version: 6.00 Build 0)  -->
<svg version="1.1" id="Layer_1" xmlns="http://www.w3.org/2000/svg" xmlns:xlink="http://www.w3.org/1999/xlink" x="0px" y="0px"
	 width="64px" height="64px" viewBox="0 0 64 64" enable-background="new 0 0 64 64" xml:space="preserve">
<path fill="#FFFFFF" stroke="#000000" stroke-miterlimit="10" d="M53.9,10.1C48.1,4.2,40.3,1,32,1s-16.1,3.2-21.9,9.1
	C4.2,15.9,1,23.7,1,32c0,8.3,3.2,16.1,9.1,21.9C15.9,59.8,23.7,63,32,63s16.1-3.2,21.9-9.1C59.8,48.1,63,40.3,63,32
	C63,23.7,59.8,15.9,53.9,10.1z M25.8,22.2c-0.9,1-2.2,1.7-3.6,1.7c-2.7,0-4.9-2.2-4.9-4.9c0-0.7,0.2-1.4,0.5-2.1
	c0.7-2,2.5-3.4,4.7-3.4c2.8,0,5,2.2,5,5C27.5,20,26.9,21.3,25.8,22.2z M41.8,23.8c-1.5,0-2.7-0.6-3.6-1.7c-1-0.9-1.7-2.2-1.7-3.7
	c0-2.8,2.2-5,5-5c2.2,0,4,1.4,4.7,3.4c0.3,0.6,0.5,1.3,0.5,2.1C46.7,21.6,44.5,23.8,41.8,23.8z"/>
<path fill="none" stroke="#000000" stroke-width="2" stroke-linecap="round" stroke-miterlimit="10" d="M19.1,44.1
	c4.5,7.5,14.8,9.6,22.9,4.8"/>
<g>
</g>
<g>
</g>
<g>
</g>
<g>
</g>
<g>
</g>
<g>
</g>
<g>
</g>
<g>
</g>
<g>
</g>
<g>
</g>
<g>
</g>
<g>
</g>
<g>
</g>
<g>
</g>
<g>
</g>
</svg>
