<?xml version="1.0" encoding="utf-8"?>
<!-- Generator: Adobe Illustrator 21.0.0, SVG Export Plug-In . SVG Version: 6.00 Build 0)  -->
<svg version="1.1" id="Layer_1" xmlns="http://www.w3.org/2000/svg" xmlns:xlink="http://www.w3.org/1999/xlink" x="0px" y="0px"
	 width="64px" height="64px" viewBox="0 0 64 64" enable-background="new 0 0 64 64" xml:space="preserve">
<path fill="#FFFFFF" stroke="#000000" stroke-miterlimit="10" d="M8.3,38.8C4.2,38.8,1,34,1,27.8s3.2-11,7.3-11s7.3,4.8,7.3,11
	S12.4,38.8,8.3,38.8z"/>
<path fill="#FFFFFF" stroke="#000000" stroke-miterlimit="10" d="M22.9,24.2c-4.1,0-7.3-4.8-7.3-10.9s3.2-10.9,7.3-10.9
	s7.3,4.8,7.3,10.9S27,24.2,22.9,24.2z"/>
<path fill="#FFFFFF" stroke="#000000" stroke-miterlimit="10" d="M41.1,24.2c-4.1,0-7.3-4.8-7.3-10.9S37,2.4,41.1,2.4
	s7.3,4.8,7.3,10.9S45.2,24.2,41.1,24.2z"/>
<path fill="#FFFFFF" stroke="#000000" stroke-miterlimit="10" d="M55.7,38.8c-4.1,0-7.3-4.8-7.3-11s3.2-11,7.3-11s7.3,4.8,7.3,11
	S59.8,38.8,55.7,38.8z"/>
<path fill="#FFFFFF" stroke="#000000" stroke-miterlimit="10" d="M44.8,60.7c-3.2,0-5.3-1.1-7.2-2c-1.8-0.9-3.3-1.6-5.6-1.6
	c-2.3,0-3.8,0.8-5.6,1.6c-1.9,0.9-4,2-7.2,2c-2,0-3.9-1.1-5.2-3c-2.3-3.4-2.3-8.5-0.1-14.1c4-10,10.6-15.7,18.1-15.7
	s14.1,5.7,18.1,15.7c2.2,5.6,2.2,10.7-0.1,14.1C48.7,59.6,46.8,60.7,44.8,60.7L44.8,60.7z"/>
<g>
</g>
<g>
</g>
<g>
</g>
<g>
</g>
<g>
</g>
<g>
</g>
<g>
</g>
<g>
</g>
<g>
</g>
<g>
</g>
<g>
</g>
<g>
</g>
<g>
</g>
<g>
</g>
<g>
</g>
</svg>
