<?xml version="1.0" encoding="utf-8"?>
<!-- Generator: Adobe Illustrator 21.0.0, SVG Export Plug-In . SVG Version: 6.00 Build 0)  -->
<svg version="1.1" id="Layer_1" xmlns="http://www.w3.org/2000/svg" xmlns:xlink="http://www.w3.org/1999/xlink" x="0px" y="0px"
	 width="64px" height="64px" viewBox="0 0 64 64" enable-background="new 0 0 64 64" xml:space="preserve">
<path fill="#FFFFFF" stroke="#000000" stroke-miterlimit="10" d="M2.6,63c-0.4,0-0.8-0.2-1.1-0.5c-0.4-0.4-0.6-1.1-0.4-1.6
	C5.9,47.8,10.9,41.2,16,41.2c1.7,0,3.3,0.7,4.7,2.2c2.3,2.3,2.3,4.5,2,6c-1,4.7-7.6,9.3-19.6,13.6C2.9,63,2.7,63,2.6,63L2.6,63z
	 M16,44.2c-1.5,0-3.3,1.3-5.2,3.9c-1.9,2.5-3.7,6.1-5.5,10.6c4.1-1.7,7.5-3.4,9.9-5c3.3-2.3,4.3-4,4.5-5.1c0.2-1.1-0.1-2.1-1.2-3.1
	C17.7,44.7,16.9,44.3,16,44.2L16,44.2z"/>
<path fill="#FFFFFF" stroke="#000000" stroke-miterlimit="10" d="M61.4,1L61.4,1c-8,0-15.2,1.4-21.3,4.1c-5,2.2-9.3,5.3-12.8,9.3
	c-0.6,0.7-1.2,1.5-1.8,2.2c-2.7,0.2-5.4,1.2-8.1,3.2c-2.3,1.6-4.6,3.9-6.9,6.7c-3.8,4.7-6.2,9.4-6.3,9.6c-0.3,0.7-0.1,1.5,0.5,1.9
	c0.3,0.2,0.6,0.3,0.9,0.3c0.4,0,0.8-0.2,1.1-0.4c0,0,1.5-1.5,4-2.9c2.1-1.2,5.3-2.6,9.2-2.8c1,2.5,3.8,5.5,5.1,6.9
	c1.3,1.3,4.4,4.2,6.9,5.1c-0.2,3.9-1.6,7.1-2.8,9.2c-1.4,2.5-2.9,4-2.9,4c-0.5,0.5-0.6,1.4-0.2,2c0.3,0.4,0.8,0.6,1.3,0.6
	c0.2,0,0.5-0.1,0.7-0.2c0.2-0.1,4.9-2.4,9.6-6.3c2.8-2.3,5.1-4.6,6.7-6.9c1.9-2.7,3-5.5,3.2-8.1c0.7-0.6,1.5-1.1,2.2-1.8
	c3.9-3.5,7-7.8,9.3-12.8C61.6,17.8,63,10.6,63,2.5V1H61.4z M19.8,28.9c-3.6,0.2-6.7,1.3-9.1,2.5c3-4.3,7.5-9.6,12.6-11.3
	C21.2,23.7,20.1,26.9,19.8,28.9z M32.6,53.4c1.2-2.4,2.2-5.5,2.5-9.1c2-0.4,5.3-1.4,8.8-3.4C42.2,45.9,36.9,50.4,32.6,53.4z
	 M43,27.5c-3.6,0-6.5-2.9-6.5-6.5s2.9-6.5,6.5-6.5s6.5,2.9,6.5,6.5S46.6,27.5,43,27.5z"/>
<g>
</g>
<g>
</g>
<g>
</g>
<g>
</g>
<g>
</g>
<g>
</g>
<g>
</g>
<g>
</g>
<g>
</g>
<g>
</g>
<g>
</g>
<g>
</g>
<g>
</g>
<g>
</g>
<g>
</g>
</svg>
