<?xml version="1.0" encoding="utf-8"?>
<!-- Generator: Adobe Illustrator 21.0.0, SVG Export Plug-In . SVG Version: 6.00 Build 0)  -->
<svg version="1.1" id="Layer_1" xmlns="http://www.w3.org/2000/svg" xmlns:xlink="http://www.w3.org/1999/xlink" x="0px" y="0px"
	 width="64px" height="64px" viewBox="0 0 64 64" enable-background="new 0 0 64 64" xml:space="preserve">
<g>
	<polygon fill="#FFFFFF" stroke="#000000" stroke-miterlimit="10" points="24.1,62.5 24.1,62.5 24.1,62.5 	"/>
	<path fill="#FFFFFF" stroke="#000000" stroke-miterlimit="10" d="M60.9,38c-2.6-0.9-4.3-3.3-4.3-6s1.7-5.1,4.3-6
		c0.8-0.3,1.2-1.1,1-1.9c-0.7-2.8-1.8-5.5-3.3-8.1c-0.4-0.7-1.4-1-2.1-0.6c-0.9,0.5-2,0.8-3,0.8c-3.5,0-6.3-2.8-6.3-6.3
		c0-1.1,0.3-2.1,0.8-3c0.4-0.7,0.1-1.7-0.6-2.1c-2.5-1.5-5.2-2.6-8.1-3.3c-0.8-0.2-1.6,0.2-1.9,1c-0.9,2.6-3.3,4.3-6,4.3
		s-5.1-1.7-6-4.3c-0.3-0.8-1.1-1.2-1.9-1c-2.8,0.7-5.5,1.8-8.1,3.3c-0.7,0.4-1,1.4-0.6,2.1c0.5,0.9,0.8,2,0.8,3
		c0,3.5-2.8,6.3-6.3,6.3c-1.1,0-2.1-0.3-3-0.8c-0.7-0.4-1.7-0.1-2.1,0.6c-1.5,2.5-2.6,5.2-3.3,8.1c-0.2,0.8,0.2,1.6,1,1.9
		c2.6,0.9,4.3,3.3,4.3,6s-1.7,5.1-4.3,6c-0.8,0.3-1.2,1.1-1,1.9c0.7,2.8,1.8,5.5,3.3,8.1c0.4,0.7,1.4,1,2.1,0.6c0.9-0.5,2-0.8,3-0.8
		c3.5,0,6.3,2.8,6.3,6.3c0,1.1-0.3,2.1-0.8,3c-0.4,0.7-0.1,1.7,0.6,2.1c2.5,1.5,5.2,2.6,8.1,3.3c0.1,0,0.3,0,0.4,0.1
		c0.7,0,1.3-0.4,1.5-1.1c0.9-2.6,3.3-4.3,6-4.3s5.1,1.7,6,4.3c0.3,0.8,1.1,1.2,1.9,1c2.8-0.7,5.5-1.8,8.1-3.3c0.7-0.4,1-1.4,0.6-2.1
		c-0.5-0.9-0.8-2-0.8-3c0-3.5,2.8-6.3,6.3-6.3c1.1,0,2.1,0.3,3,0.8c0.7,0.4,1.7,0.1,2.1-0.6c1.5-2.5,2.6-5.2,3.3-8.1
		C62.2,39,61.7,38.2,60.9,38z M32.2,40c-0.4,0-0.8,0-1.1-0.1c-3.9-0.4-7-3.7-7-7.7c0-4,3.1-7.3,7-7.7c0.4-0.1,0.8-0.1,1.2-0.1
		c4.3,0,7.8,3.5,7.8,7.8S36.5,40,32.2,40z"/>
</g>
<g>
</g>
<g>
</g>
<g>
</g>
<g>
</g>
<g>
</g>
<g>
</g>
<g>
</g>
<g>
</g>
<g>
</g>
<g>
</g>
<g>
</g>
<g>
</g>
<g>
</g>
<g>
</g>
<g>
</g>
</svg>
