<?xml version="1.0" encoding="utf-8"?>
<!-- Generator: Adobe Illustrator 21.0.0, SVG Export Plug-In . SVG Version: 6.00 Build 0)  -->
<svg version="1.1" id="Layer_1" xmlns="http://www.w3.org/2000/svg" xmlns:xlink="http://www.w3.org/1999/xlink" x="0px" y="0px"
	 width="200px" height="200px" viewBox="0 0 200 200" enable-background="new 0 0 200 200" xml:space="preserve">
<g>
	<path fill="#8CC63F" d="M55.3,33.4c1.8-5.1,4.5-10,8.2-14.1c3.6-4.1,8.1-7.5,13-9.9c5-2.4,10.4-3.9,16-4.2
		C98,4.9,103.7,5.6,109,7.4s10.2,4.7,14.5,8.4c4.2,3.7,7.7,8.3,10.2,13.4s4,10.7,4.3,16.4c0.4,5.7-0.4,11.5-2.3,17
		c-0.4,1.3-1.9,2-3.2,1.6s-2-1.9-1.6-3.2v-0.1c1.8-4.8,2.7-9.9,2.6-15.1c-0.1-5.1-1.3-10.3-3.4-15c-2.1-4.7-5.1-9.1-8.9-12.7
		s-8.3-6.5-13.2-8.4C103.1,7.8,97.8,6.9,92.5,7C87.3,7.2,82,8.4,77.1,10.6s-9.4,5.3-13.1,9.2C60.2,23.7,57.3,28.3,55.3,33.4z"/>
</g>
<g>
	<path fill="#8CC63F" d="M20,125c-4.3-3.3-8.1-7.4-10.8-12.1c-2.8-4.7-4.6-10-5.4-15.5C2.9,92,3.2,86.3,4.6,80.9s3.9-10.5,7.2-15
		c3.4-4.5,7.6-8.3,12.5-11.2s10.3-4.8,15.9-5.6s11.4-0.5,17,1c5.5,1.4,10.8,4,15.4,7.4c1.1,0.8,1.3,2.4,0.5,3.5s-2.4,1.3-3.5,0.5
		c0,0-0.1,0-0.1-0.1c-4-3.2-8.6-5.7-13.5-7.1c-4.9-1.5-10.2-2-15.3-1.4c-5.2,0.5-10.2,2.1-14.8,4.6s-8.7,5.9-12.1,10
		c-3.3,4.1-5.9,8.9-7.4,13.9c-1.5,5.1-2,10.5-1.5,15.8c0.6,5.3,2.2,10.6,4.7,15.3C12.2,117.3,15.7,121.6,20,125z"/>
</g>
<g>
	<path fill="#8CC63F" d="M93,188.2c-4.5,3.1-9.5,5.4-14.9,6.6c-5.3,1.2-10.9,1.3-16.4,0.4c-5.4-1-10.7-3-15.4-6s-8.8-6.9-12-11.5
		s-5.5-9.8-6.8-15.3c-1.2-5.5-1.4-11.3-0.4-16.9c1-5.6,3.1-11,6.2-15.8s7.1-9.1,11.8-12.4c1.1-0.8,2.7-0.5,3.5,0.6s0.5,2.7-0.6,3.5
		c0,0-0.1,0-0.1,0.1c-4.3,2.8-8,6.4-11,10.6c-2.9,4.2-5,9.1-6.1,14.1c-1.1,5.1-1.2,10.4-0.2,15.5c0.9,5.1,2.9,10.1,5.8,14.5
		s6.6,8.3,11,11.3s9.4,5.2,14.6,6.3c5.2,1.1,10.7,1.2,16,0.2C83.3,193.2,88.4,191.1,93,188.2z"/>
</g>
<g>
	<path fill="#8CC63F" d="M178.2,139.4c1.6,5.2,2.2,10.7,1.6,16.2c-0.5,5.5-2.1,10.8-4.7,15.7c-2.6,4.9-6.1,9.3-10.4,12.8
		c-4.3,3.5-9.3,6.2-14.6,7.9c-5.4,1.6-11,2.2-16.7,1.7c-5.6-0.5-11.1-2.2-16.2-4.8c-5-2.7-9.5-6.3-13.2-10.7
		c-3.6-4.4-6.4-9.6-8.1-15.1c-0.4-1.3,0.3-2.7,1.7-3.1c1.3-0.4,2.7,0.3,3.1,1.7v0.1c1.3,4.9,3.6,9.6,6.7,13.7
		c3.1,4.1,7.1,7.6,11.6,10.2c4.5,2.6,9.5,4.3,14.7,5c5.2,0.7,10.5,0.4,15.6-1s9.9-3.7,14.2-6.9c4.2-3.2,7.8-7.3,10.5-11.9
		c2.7-4.6,4.5-9.8,5.2-15.2C180,150.2,179.6,144.7,178.2,139.4z"/>
</g>
<g>
	<path fill="#8CC63F" d="M156.9,40.6c5.4,0.1,10.9,1.2,15.9,3.4s9.6,5.4,13.5,9.3c3.8,4,6.9,8.7,8.9,13.9s3.1,10.8,3,16.4
		s-1.3,11.2-3.5,16.4c-2.2,5.2-5.5,9.9-9.6,13.9c-4.1,3.9-9,7.1-14.3,9.2s-11.1,3.1-16.8,3.1c-1.4,0-2.5-1.2-2.5-2.5
		c0-1.4,1.2-2.5,2.5-2.5h0.1c5.1,0.3,10.3-0.4,15.1-2.2c4.9-1.7,9.4-4.4,13.3-7.8c3.9-3.5,7.1-7.7,9.3-12.4
		c2.3-4.7,3.6-9.9,3.9-15.2c0.3-5.3-0.5-10.6-2.2-15.6c-1.8-5-4.5-9.7-8.1-13.7s-8-7.3-12.8-9.6C167.7,42.3,162.4,40.9,156.9,40.6z"
		/>
</g>
</svg>
