<?xml version="1.0" encoding="utf-8"?>
<!-- Generator: Adobe Illustrator 21.0.0, SVG Export Plug-In . SVG Version: 6.00 Build 0)  -->
<svg version="1.1" xmlns="http://www.w3.org/2000/svg" xmlns:xlink="http://www.w3.org/1999/xlink" x="0px" y="0px" width="43px"
	 height="27px" viewBox="0 0 43 27" enable-background="new 0 0 43 27" xml:space="preserve">
<g id="LayerBalloon">
	<g>
		<g>
			<path fill="#8CC63F" d="M33.5,26L33.5,26c-0.5-0.5-0.7-1-0.7-1.5l0,0c0-0.6,0.3-1.1,0.5-1.5l0,0c0.3-0.5,0.5-0.9,0.5-1.3l0,0
				c0,0,0,0,0,0l0,0l0,0l0.3,0c0,0,0,0,0,0l0,0c0,0.5-0.3,1-0.5,1.5l0,0c-0.3,0.5-0.5,0.9-0.5,1.4l0,0"/>
			<path fill="#8CC63F" d="M35,28.1"/>
			<path fill="#8CC63F" d="M33.7,25.8L33.7,25.8"/>
			<path fill="#8CC63F" d="M34.5,19.2c0.5,0.5,1.1,1.5,0.8,2c-1.9,0.4-2.5,0.4-2.7-0.3c-0.2-0.4,0.2-1.2,0.7-1.7H34.5z M33.9,0.4
				c-4.3,0-7.9,3.5-7.9,7.9c0,5,4.5,9.7,7.3,10.7h1.1c2.8-1,7.3-5.7,7.3-10.7C41.7,3.9,38.2,0.4,33.9,0.4z"/>
		</g>
	</g>
</g>
<g id="LayerUP">
	<g>
		<path fill="#FFFFFF" d="M32.4,5.8c0.3,0,0.4,0.1,0.4,0.4v4.5c0,0.3-0.1,0.4-0.4,0.4h0c-0.3,0-0.4-0.1-0.4-0.4v-0.3
			c-0.4,0.5-1,0.7-1.7,0.7c-1.5,0-2.2-0.7-2.2-2.4V6.2c0-0.3,0.1-0.4,0.4-0.4h0c0.3,0,0.4,0.1,0.4,0.4v2.6c0,1,0.5,1.6,1.4,1.6
			c1.1,0,1.7-0.6,1.7-1.8V6.2C32,5.9,32.2,5.8,32.4,5.8L32.4,5.8z"/>
		<path fill="#FFFFFF" d="M39.9,8.5c0,1.5-1.2,2.8-2.7,2.8c-0.8,0-1.5-0.4-2-1v2.9c0,0.3-0.1,0.4-0.4,0.4h0c-0.3,0-0.4-0.1-0.4-0.4
			V6.2c0-0.3,0.1-0.4,0.4-0.4h0c0.3,0,0.4,0.1,0.4,0.4v0.5c0.5-0.6,1.2-0.9,2-0.9C38.7,5.7,39.9,7,39.9,8.5z M39.1,8.5
			c0-1.1-0.8-1.9-1.9-1.9c-1,0-2,0.9-2,1.9c0,1,0.9,2,2,2C38.3,10.4,39.1,9.5,39.1,8.5z"/>
	</g>
</g>
<g id="LayerSVG">
	<g>
		<path fill="#8CC63F" d="M5.1,6.9c-0.2,0-0.3-0.1-0.5-0.3C4.4,6.2,3.9,5.9,3.4,5.9c-0.9,0-1.5,0.7-1.5,1.4s0.5,1.1,1.5,1.4
			c1.6,0.5,2.8,1.1,2.8,2.6c0,1.5-1.2,2.5-2.8,2.5c-1.3,0-2.3-0.8-2.7-1.9c-0.1-0.3,0.1-0.4,0.3-0.4h0.1c0.2,0,0.3,0.1,0.4,0.3
			c0.3,0.6,0.9,1.1,1.8,1.1c1,0,1.9-0.6,1.9-1.6c0-0.8-0.5-1.2-1.9-1.6C1.8,9.2,0.9,8.6,0.9,7.3C0.9,6,1.9,5,3.4,5
			c1,0,1.9,0.6,2.2,1.5c0.1,0.3,0,0.4-0.3,0.4H5.1z"/>
		<path fill="#8CC63F" d="M10.4,13.7c-0.2,0-0.4-0.1-0.4-0.3L6.7,5.6C6.6,5.3,6.7,5.1,7,5.1h0.1c0.2,0,0.4,0.1,0.4,0.3l3,7.1l3-7.1
			c0.1-0.2,0.2-0.3,0.4-0.3h0.1c0.3,0,0.4,0.2,0.3,0.4l-3.3,7.8c-0.1,0.2-0.2,0.3-0.4,0.3H10.4z"/>
		<path fill="#8CC63F" d="M15,9.4C15,7,17,5,19.5,5C21,5,22.2,5.7,23,6.8c0.2,0.3,0.1,0.5-0.3,0.5h-0.1c-0.2,0-0.3-0.1-0.5-0.2
			c-0.7-0.7-1.6-1.2-2.7-1.2c-2,0-3.6,1.6-3.6,3.5c0,2,1.6,3.6,3.6,3.6c1.3,0,2.4-0.6,3-1.6V9.8c0-0.3,0.1-0.4,0.4-0.4H23
			c0.3,0,0.4,0.1,0.4,0.4v3.6c0,0.3-0.1,0.4-0.4,0.4h-0.1c-0.3,0-0.4-0.1-0.4-0.4v-0.7c-0.8,0.7-1.8,1.2-3,1.2
			C17,13.8,15,11.8,15,9.4z"/>
	</g>
	<g>
	</g>
	<g>
	</g>
	<g>
	</g>
	<g>
	</g>
	<g>
	</g>
	<g>
	</g>
	<g>
	</g>
	<g>
	</g>
	<g>
	</g>
	<g>
	</g>
	<g>
	</g>
	<g>
	</g>
	<g>
	</g>
	<g>
	</g>
	<g>
	</g>
</g>
</svg>
