<?xml version="1.0" encoding="utf-8"?>
<!-- Generator: Adobe Illustrator 21.0.0, SVG Export Plug-In . SVG Version: 6.00 Build 0)  -->
<svg version="1.1" xmlns="http://www.w3.org/2000/svg" xmlns:xlink="http://www.w3.org/1999/xlink" x="0px" y="0px" width="43px"
	 height="25.5px" viewBox="0 0 43 25.5" enable-background="new 0 0 43 25.5" xml:space="preserve">
<g id="LayerBalloon">
	<g>
		<path fill="#8CC63F" d="M33,21.5c-0.1,0-0.1,0-0.2-0.1s-0.1-0.1,0-0.2l0.1-0.5l0.2-0.3c0,0,0.1-0.1,0.1-0.1l0.2-0.1
			c0,0,0.1,0,0.1,0h0.8c0.1,0,0.2,0.1,0.2,0.1l0.1,0.2l0.1,0.2l0,0.3c0,0.1,0,0.1,0,0.2l-0.1,0.1c0,0,0,0.1-0.1,0.1l-0.1,0.1
			l-0.3,0.1c0,0-0.4,0.1-0.4,0.1H33z"/>
		<path fill="#8CC63F" d="M34.3,20.3l0.1,0.2l0.1,0.2l0,0.2L34.4,21l-0.1,0.1l-0.2,0l-0.4,0h-0.3H33l0.1-0.5l0.1-0.2l0.2-0.1h0.2
			h0.2h0.2H34.3 M34.3,19.8h-0.2h-0.2h-0.2h-0.2c-0.1,0-0.2,0-0.2,0.1L33,20c-0.1,0-0.2,0.1-0.2,0.2l-0.1,0.2c0,0,0,0.1,0,0.1
			l-0.1,0.5c0,0.1,0,0.3,0.1,0.4c0.1,0.1,0.2,0.2,0.4,0.2h0.3h0.3c0,0,0,0,0.1,0l0.4,0l0.3,0c0.1,0,0.1,0,0.2-0.1l0.1-0.1
			c0.1,0,0.1-0.1,0.1-0.2l0.1-0.1C35,21.1,35,21,35,20.9l0-0.2c0,0,0-0.1,0-0.1l-0.1-0.2c0,0,0,0,0-0.1l-0.1-0.2
			C34.7,19.9,34.5,19.8,34.3,19.8L34.3,19.8z"/>
	</g>
	
		<path fill="none" stroke="#8CC63F" stroke-width="0.25" stroke-linecap="round" stroke-linejoin="round" stroke-miterlimit="10" d="
		M33.8,22.1c0,0.5,0.1,1,0.3,1.3c0.2,0.3,0.4,0.5,0.7,0.5"/>
	<path fill="#8CC63F" d="M41.8,9.1c0,1.2-0.4,2.4-1.1,3.5s-1.4,2.3-2.1,3.3c-0.7,1-1.3,1.8-2.1,2.4s-1.5,1.3-2.6,1.3
		c-1.1,0-1.9-0.7-2.6-1.3c-0.7-0.6-1.4-1.4-2.1-2.4c-0.7-1-1.5-2.1-2.1-3.3c-0.6-1.2-1.1-2.4-1.1-3.5s0.2-2.2,0.6-3.2
		c0.4-1,1-1.9,1.7-2.6c0.7-0.8,1.6-1.4,2.5-1.8s2-0.7,3.1-0.7C35,0.7,36,1,37,1.4c0.9,0.4,1.8,1,2.5,1.8c0.7,0.8,1.3,1.7,1.7,2.6
		C41.6,6.8,41.8,7.9,41.8,9.1z"/>
</g>
<g id="Layer_1">
	<g id="LayerUP">
		<g>
			<path fill="#FFFFFF" d="M32.4,5.8c0.3,0,0.4,0.1,0.4,0.4v4.5c0,0.3-0.1,0.4-0.4,0.4l0,0c-0.3,0-0.4-0.1-0.4-0.4v-0.3
				c-0.4,0.5-1,0.7-1.7,0.7c-1.5,0-2.2-0.7-2.2-2.4V6.2c0-0.3,0.1-0.4,0.4-0.4l0,0c0.3,0,0.4,0.1,0.4,0.4v2.6c0,1,0.5,1.6,1.4,1.6
				c1.1,0,1.7-0.6,1.7-1.8V6.2C32,5.9,32.2,5.8,32.4,5.8L32.4,5.8z"/>
			<path fill="#FFFFFF" d="M39.9,8.5c0,1.5-1.2,2.8-2.7,2.8c-0.8,0-1.5-0.4-2-1v2.9c0,0.3-0.1,0.4-0.4,0.4l0,0
				c-0.3,0-0.4-0.1-0.4-0.4v-7c0-0.3,0.1-0.4,0.4-0.4l0,0c0.3,0,0.4,0.1,0.4,0.4v0.5c0.5-0.6,1.2-0.9,2-0.9
				C38.7,5.7,39.9,7,39.9,8.5z M39.1,8.5c0-1.1-0.8-1.9-1.9-1.9c-1,0-2,0.9-2,1.9s0.9,2,2,2C38.3,10.4,39.1,9.5,39.1,8.5z"/>
		</g>
	</g>
	<g id="LayerSVG">
		<g>
			<path fill="#8CC63F" d="M5.1,6.9c-0.2,0-0.3-0.1-0.5-0.3C4.4,6.2,3.9,5.9,3.4,5.9c-0.9,0-1.5,0.7-1.5,1.4s0.5,1.1,1.5,1.4
				C5,9.2,6.2,9.8,6.2,11.3S5,13.8,3.4,13.8c-1.3,0-2.3-0.8-2.7-1.9c-0.1-0.3,0.1-0.4,0.3-0.4h0.1c0.2,0,0.3,0.1,0.4,0.3
				c0.3,0.6,0.9,1.1,1.8,1.1c1,0,1.9-0.6,1.9-1.6c0-0.8-0.5-1.2-1.9-1.6C1.8,9.2,0.9,8.6,0.9,7.3S1.9,5,3.4,5c1,0,1.9,0.6,2.2,1.5
				c0.1,0.3,0,0.4-0.3,0.4H5.1z"/>
			<path fill="#8CC63F" d="M10.4,13.7c-0.2,0-0.4-0.1-0.4-0.3L6.7,5.6C6.6,5.3,6.7,5.1,7,5.1h0.1c0.2,0,0.4,0.1,0.4,0.3l3,7.1l3-7.1
				c0.1-0.2,0.2-0.3,0.4-0.3H14c0.3,0,0.4,0.2,0.3,0.4L11,13.3c-0.1,0.2-0.2,0.3-0.4,0.3L10.4,13.7L10.4,13.7z"/>
			<path fill="#8CC63F" d="M15,9.4C15,7,17,5,19.5,5C21,5,22.2,5.7,23,6.8c0.2,0.3,0.1,0.5-0.3,0.5h-0.1c-0.2,0-0.3-0.1-0.5-0.2
				c-0.7-0.7-1.6-1.2-2.7-1.2c-2,0-3.6,1.6-3.6,3.5c0,2,1.6,3.6,3.6,3.6c1.3,0,2.4-0.6,3-1.6V9.8c0-0.3,0.1-0.4,0.4-0.4H23
				c0.3,0,0.4,0.1,0.4,0.4v3.6c0,0.3-0.1,0.4-0.4,0.4h-0.1c-0.3,0-0.4-0.1-0.4-0.4v-0.7c-0.8,0.7-1.8,1.2-3,1.2
				C17,13.8,15,11.8,15,9.4z"/>
		</g>
	</g>
</g>
</svg>
