<?xml version="1.0" encoding="utf-8"?>
<!-- Generator: Adobe Illustrator 17.0.0, SVG Export Plug-In . SVG Version: 6.00 Build 0)  -->
<!DOCTYPE svg PUBLIC "-//W3C//DTD SVG 1.1//EN" "http://www.w3.org/Graphics/SVG/1.1/DTD/svg11.dtd">
<svg version="1.1" id="Layer_1" xmlns="http://www.w3.org/2000/svg" xmlns:xlink="http://www.w3.org/1999/xlink" x="0px" y="0px"
	 width="16.015px" height="16.003px" viewBox="0 0 16.015 16.003" enable-background="new 0 0 16.015 16.003" xml:space="preserve">
<g>
	<g>
		<path fill="#414042" d="M10.16,7.311L9.591,7.104l0.494-0.35C11.007,6.1,11.61,5.028,11.61,3.812
			C11.607,1.823,9.997,0.214,8.008,0.21c-1.99,0.004-3.599,1.613-3.603,3.603c0,0.419,0.073,0.821,0.205,1.194
			c0.25,0.71,0.715,1.32,1.32,1.748l0.494,0.35L5.855,7.311c-2.422,0.88-4.153,3.201-4.152,5.927
			c-0.001,0.262,0.13,0.551,0.428,0.853c0.2,0.203,0.474,0.404,0.807,0.592c0.159,0.09,0.331,0.177,0.515,0.259
			c1.147,0.511,2.766,0.852,4.555,0.851c2.677,0.009,4.986-0.821,5.877-1.731c0.299-0.301,0.43-0.583,0.428-0.824
			C14.313,10.512,12.582,8.19,10.16,7.311z"/>
	</g>
</g>
</svg>
