<?xml version="1.0" encoding="utf-8"?>
<!-- Generator: Adobe Illustrator 21.0.0, SVG Export Plug-In . SVG Version: 6.00 Build 0)  -->
<svg version="1.1" id="Layer_1" xmlns="http://www.w3.org/2000/svg" xmlns:xlink="http://www.w3.org/1999/xlink" x="0px" y="0px"
	 width="32px" height="32px" viewBox="0 0 32 32" enable-background="new 0 0 32 32" xml:space="preserve">
<g>
	<path fill="#666666" stroke="#000000" stroke-width="0.5" stroke-miterlimit="10" d="M14,28.3C14,28.4,14,28.4,14,28.3
		c0,1.5,1,2.7,2.3,2.7c1.2,0,2.3-1.2,2.3-2.6c0,0,0,0,0,0C16.9,28.6,15.4,28.5,14,28.3z"/>
	<path fill="#666666" stroke="#000000" stroke-width="0.5" stroke-miterlimit="10" d="M28.6,20.3c-2.1,1.1-3.7,1.6-5.6,2.1
		c-1.3,0.3-2.6,0.6-3.9,0.7c-2,0.2-3.9,0.2-5.7,0c-1.4-0.1-2.7-0.4-3.8-0.7c-3.8-0.9-5.8-2.3-5.8-2.3l-1.3,3.2
		c0,0,14.4,7.9,27.3-0.1L28.6,20.3z"/>
	<path fill="#666666" stroke="#000000" stroke-width="0.5" stroke-miterlimit="10" d="M23.5,9.2L23.5,9.2c0-0.1,0-0.2,0-0.3
		c0-4.4-3.3-8-7.3-8c-4.1,0-7.3,3.6-7.3,8c0,0.2,0,0.4,0,0.6h0c0,0-0.2,8.2-4.2,9.9c0,0,2.1,1.3,5.5,2.1c1,0.3,2.2,0.5,3.5,0.6
		c1.6,0.2,3.3,0.2,5.2,0c1.1-0.1,2.3-0.3,3.5-0.6c1.8-0.5,3.6-1.1,5.5-2.1C27.8,19.4,23.7,16.2,23.5,9.2z"/>
</g>
<g>
</g>
<g>
</g>
<g>
</g>
<g>
</g>
<g>
</g>
<g>
</g>
<g>
</g>
<g>
</g>
<g>
</g>
<g>
</g>
<g>
</g>
<g>
</g>
<g>
</g>
<g>
</g>
<g>
</g>
</svg>
