<?xml version="1.0" encoding="utf-8"?>
<!-- Generator: Adobe Illustrator 21.0.0, SVG Export Plug-In . SVG Version: 6.00 Build 0)  -->
<svg version="1.1" id="Layer_1" xmlns="http://www.w3.org/2000/svg" xmlns:xlink="http://www.w3.org/1999/xlink" x="0px" y="0px"
	 width="32px" height="32px" viewBox="0 0 32 32" enable-background="new 0 0 32 32" xml:space="preserve">
<path fill="#666666" stroke="#000000" stroke-width="0.5" stroke-miterlimit="10" d="M6.9,18.1c-4.4,5.5-0.2,7.2-0.2,7.2
	c7,2.2,8.3-3.4,8.5-6.2c0,2.6,0.5,2.4,0.5,2.4c0.2-0.1,0.3-1,0.4-2c0.2,2.9,1.5,7.7,8.1,6c0,0,4.3-1.4,0.2-7.2c2.6-1.5,3.4-5,3.4-5
	c1.5-0.5,2.5-2.1,2.5-2.1c2.1-4.1-3-4.5-3-4.5c-8.3,0.3-10.5,7.4-10.9,9c0-0.2-0.1-0.4-0.2-0.5c0.2-0.2,0.3-0.4,0.3-0.6
	c0-0.3-0.2-0.6-0.4-0.7c0.4-1,1.5-4.1,2.3-4.6c0,0,0.1,0,0.1,0c0.1,0,0.1-0.1,0.1-0.1c0-0.1-0.1-0.1-0.1-0.1c-0.1,0-0.1,0.1-0.1,0.1
	c0,0,0,0,0,0c-0.8,0.5-1.9,3.6-2.3,4.6c-0.1-0.1-0.2-0.1-0.4-0.1c-0.1,0-0.3,0-0.4,0.1c-0.5-1-1.9-3.9-2.8-4.4c0,0,0,0,0-0.1
	c0-0.1-0.1-0.1-0.1-0.1c-0.1,0-0.1,0.1-0.1,0.1c0,0.1,0.1,0.1,0.1,0.1c0,0,0.1,0,0.1,0c0.9,0.4,2.3,3.4,2.8,4.3
	c-0.2,0.1-0.4,0.4-0.4,0.7c0,0.2,0.1,0.5,0.3,0.6c-0.1,0.2-0.2,0.3-0.2,0.6c-0.3-1.8-2.2-8.8-10.3-9.6c0,0-5.2,0.2-3.3,4.4
	c0,0,0.9,1.6,2.4,2.2C3.8,12.9,4.5,16.5,6.9,18.1z"/>
<g>
</g>
<g>
</g>
<g>
</g>
<g>
</g>
<g>
</g>
<g>
</g>
<g>
</g>
<g>
</g>
<g>
</g>
<g>
</g>
<g>
</g>
<g>
</g>
<g>
</g>
<g>
</g>
<g>
</g>
</svg>
