<?xml version="1.0" encoding="utf-8"?>
<!-- Generator: Adobe Illustrator 21.0.0, SVG Export Plug-In . SVG Version: 6.00 Build 0)  -->
<svg version="1.1" id="Layer_1" xmlns="http://www.w3.org/2000/svg" xmlns:xlink="http://www.w3.org/1999/xlink" x="0px" y="0px"
	 width="32px" height="32px" viewBox="0 0 32 32" enable-background="new 0 0 32 32" xml:space="preserve">
<g>
	<g>
		<path fill="#666666" stroke="#000000" stroke-width="0.5" stroke-miterlimit="10" d="M21.7,12.3c-0.2-0.8-0.5-1.5-0.8-2.3
			c-2.7,0.6-3.6-1.8-2.4-3.4c-0.4-0.6-1-1.1-1.9-1.3c-1.1,1.7-4.2,0.9-4-1.5c-0.9,0-1.8,0-2.6,0c0.2,2.5-2.8,3.1-4.1,1.5
			C5.3,5.7,4.4,5.9,4.2,6.8c1.2,1.5,0.1,3.8-2.4,3.2c-0.3,0.7-0.5,1.5-0.7,2.3c2.1,0.3,2.1,3.6,0,4c0.2,0.8,0.5,1.5,0.7,2.3
			c2.7-0.6,3.6,1.7,2.4,3.4c0.4,0.6,1,1.1,1.9,1.3c1.1-1.7,4.2-0.9,3.9,1.5c0.9,0,1.8,0,2.6,0c-0.2-2.5,2.8-3.1,4.1-1.5
			c0.6-0.4,1.5-0.6,1.7-1.5c-1.2-1.5-0.1-3.8,2.4-3.2c0.3-0.7,0.5-1.5,0.8-2.3C19.5,15.7,19.5,12.8,21.7,12.3z M11.3,18.2
			c-2.2,0-3.9-1.8-3.9-3.9c0-2.2,1.8-3.9,3.9-3.9c2.2,0,3.9,1.8,3.9,3.9C15.3,16.4,13.5,18.2,11.3,18.2z"/>
	</g>
	<g>
		<path fill="#666666" stroke="#000000" stroke-width="0.5" stroke-miterlimit="10" d="M31,22.1c-0.1-0.4-0.1-0.8-0.3-1.2
			c-1.5,0.1-1.8-1.2-1.1-1.9c-0.2-0.4-0.5-0.6-0.9-0.8c-0.7,0.9-2.3,0.2-2-1c-0.5-0.1-0.9-0.1-1.4-0.2c0,1.4-1.7,1.5-2.3,0.5
			c-0.4,0.2-0.8,0.2-1,0.7c0.6,0.9-0.2,2-1.5,1.5c-0.2,0.4-0.4,0.7-0.5,1.1c1.1,0.3,0.9,2-0.2,2.1c0.1,0.4,0.2,0.8,0.3,1.2
			c1.5-0.1,1.8,1.2,1.1,1.9c0.2,0.4,0.5,0.6,0.9,0.8c0.7-0.8,2.3-0.2,2,1c0.5,0.1,0.9,0.1,1.4,0.2c0-1.4,1.7-1.5,2.3-0.5
			c0.4-0.2,0.8-0.2,1-0.7c-0.6-0.9,0.2-2,1.5-1.5c0.2-0.4,0.4-0.7,0.5-1.1C29.6,23.8,29.8,22.3,31,22.1z M25.1,24.6
			c-1.1-0.1-2-1.2-1.8-2.3c0.1-1.1,1.2-2,2.3-1.8c1.2,0.1,2,1.2,1.8,2.3C27.3,23.9,26.3,24.8,25.1,24.6z"/>
	</g>
</g>
<g>
</g>
<g>
</g>
<g>
</g>
<g>
</g>
<g>
</g>
<g>
</g>
<g>
</g>
<g>
</g>
<g>
</g>
<g>
</g>
<g>
</g>
<g>
</g>
<g>
</g>
<g>
</g>
<g>
</g>
</svg>
