<?xml version="1.0" encoding="utf-8"?>
<!-- Generator: Adobe Illustrator 21.0.0, SVG Export Plug-In . SVG Version: 6.00 Build 0)  -->
<svg version="1.1" id="Layer_1" xmlns="http://www.w3.org/2000/svg" xmlns:xlink="http://www.w3.org/1999/xlink" x="0px" y="0px"
	 width="32px" height="32px" viewBox="0 0 32 32" enable-background="new 0 0 32 32" xml:space="preserve">
<g>
	<path fill="#666666" stroke="#000000" stroke-width="0.5" stroke-miterlimit="10" d="M27.3,26.6c5.5-6.1,5.4-15.5-0.5-21.4
		C20.8-0.8,11-0.8,4.9,5.2c-1.3,1.3-2.2,2.7-3,4.2c-2.8,5.8-1.8,12.9,3,17.7c6.1,6.1,15.9,6.1,21.9,0C27,27,27.2,26.8,27.3,26.6z
		 M11.1,23.6c-0.7,0.7-1.9,0.7-2.6,0c-0.7-0.7-0.7-1.9,0-2.6l3-3l1.8-1.8l-4.8-4.8c-0.7-0.7-0.7-1.9,0-2.6c0.7-0.7,1.9-0.7,2.6,0
		l4.8,4.8l4.8-4.8c0.7-0.7,1.9-0.7,2.6,0c0.7,0.7,0.7,1.9,0,2.6l-4.8,4.8l4.8,4.8c0.7,0.7,0.7,1.9,0,2.6c-0.7,0.7-1.9,0.7-2.6,0
		l-4.8-4.8l-1.4,1.4L11.1,23.6z"/>
</g>
<g>
</g>
<g>
</g>
<g>
</g>
<g>
</g>
<g>
</g>
<g>
</g>
<g>
</g>
<g>
</g>
<g>
</g>
<g>
</g>
<g>
</g>
<g>
</g>
<g>
</g>
<g>
</g>
<g>
</g>
</svg>
