<?xml version="1.0" encoding="utf-8"?>
<!-- Generator: Adobe Illustrator 21.0.0, SVG Export Plug-In . SVG Version: 6.00 Build 0)  -->
<svg version="1.1" id="Layer_1" xmlns="http://www.w3.org/2000/svg" xmlns:xlink="http://www.w3.org/1999/xlink" x="0px" y="0px"
	 width="32px" height="32px" viewBox="0 0 32 32" enable-background="new 0 0 32 32" xml:space="preserve">
<g>
	<path fill="#666666" stroke="#000000" stroke-width="0.5" stroke-miterlimit="10" d="M7.5,8.1c-6.2,3-7.1,5.9-6.2,8.3
		c0.5,1.4,1.7,2.6,2.8,3.5c1,1,1.9,1.7,2.7,2.1c0.1,0.3,2.3,7.5,4.8,6.2c0,0-0.9-3,2.3-4.5c6.5-0.2,8.7-5,8.7-5
		c10.6,8.1,8.2,3.8,8.2,3.8c-3-2.3-3.4-6.7-3.4-6.7c0.1-3.7,3.4-8.7,3.4-8.7c-3.3-0.4-6.3,4.4-6.3,4.4c-1.5,3.8-2.6,1.3-2.6,1.3
		c-2.9-4.2-6.4-5.4-9-5.7c0.1-1.2,0.7-1.9,0.7-1.9C12.1,3.5,9,6.4,7.5,8.1z M8.2,13.6c0,1-0.8,1.7-1.7,1.7c-1,0-1.7-0.8-1.7-1.7
		c0-0.5,0.2-1,0.6-1.3c0.3-0.2,0.7-0.4,1.1-0.4c0.7,0,1.3,0.4,1.6,1.1C8.1,13.2,8.2,13.4,8.2,13.6z"/>
</g>
<g>
</g>
<g>
</g>
<g>
</g>
<g>
</g>
<g>
</g>
<g>
</g>
<g>
</g>
<g>
</g>
<g>
</g>
<g>
</g>
<g>
</g>
<g>
</g>
<g>
</g>
<g>
</g>
<g>
</g>
</svg>
