<?xml version="1.0" encoding="utf-8"?>
<!-- Generator: Adobe Illustrator 21.0.0, SVG Export Plug-In . SVG Version: 6.00 Build 0)  -->
<svg version="1.1" id="Layer_1" xmlns="http://www.w3.org/2000/svg" xmlns:xlink="http://www.w3.org/1999/xlink" x="0px" y="0px"
	 width="32px" height="32px" viewBox="0 0 32 32" enable-background="new 0 0 32 32" xml:space="preserve">
<g>
	<g>
		<g>
			<path fill-rule="evenodd" clip-rule="evenodd" fill="#666666" stroke="#000000" stroke-width="0.5" stroke-miterlimit="10" d="
				M28.8,15.5c-3.3,0.2-6.2,0.1-9.6,0.2c0-1.4-0.7-2.2-1.5-2.9c1.4-2.7,2.8-5.4,4.5-7.7C26,7,28.4,10.3,28.8,15.5z"/>
			<path fill-rule="evenodd" clip-rule="evenodd" fill="#666666" stroke="#000000" stroke-width="0.5" stroke-miterlimit="10" d="
				M13.7,12.7c-0.8,0.8-1.6,1.6-1.6,3.1c-3-0.1-6.3,0.1-9.2-0.1c0.5-5.1,2.8-8.4,6.5-10.4C11.2,7.4,12.3,10.2,13.7,12.7z"/>
			<path fill-rule="evenodd" clip-rule="evenodd" fill="#666666" stroke="#000000" stroke-width="0.5" stroke-miterlimit="10" d="
				M15.1,12.9c2.6-0.5,4.3,1.8,3.5,4c-1,2.5-4.6,2.2-5.6,0.3C11.9,15.1,13.4,13.2,15.1,12.9z"/>
			<path fill-rule="evenodd" clip-rule="evenodd" fill="#666666" stroke="#000000" stroke-width="0.5" stroke-miterlimit="10" d="
				M17.7,18.9c1.2,2.6,2.8,4.9,4,7.4c-2.7,1.8-9.1,1.9-11.7-0.1c1.3-2.5,2.7-4.9,4-7.4C15,19.6,16.6,19.3,17.7,18.9z"/>
		</g>
	</g>
	<path fill-rule="evenodd" clip-rule="evenodd" fill="#666666" stroke="#000000" stroke-width="0.5" stroke-miterlimit="10" d="
		M14.7,1.1c8.8-0.8,16.2,6.4,15.5,15.6C29.7,24.5,23,30.4,14.9,30c-7.3-0.4-13.2-6-13.7-13.2C0.9,13.7,1.8,10,3.4,7.6
		C5.4,4.5,9.3,1.6,14.7,1.1z M2.5,12.6c-1.2,5.7,1.4,10.5,4.3,13c8.2,7.2,21.9,2.2,22.8-9.1c0.6-8.8-6.3-15.1-14.5-14.6
		C8.5,2.4,3.8,6.4,2.5,12.6z"/>
</g>
<g>
</g>
<g>
</g>
<g>
</g>
<g>
</g>
<g>
</g>
<g>
</g>
<g>
</g>
<g>
</g>
<g>
</g>
<g>
</g>
<g>
</g>
<g>
</g>
<g>
</g>
<g>
</g>
<g>
</g>
</svg>
