<?xml version="1.0" encoding="utf-8"?>
<!-- Generator: Adobe Illustrator 21.0.0, SVG Export Plug-In . SVG Version: 6.00 Build 0)  -->
<svg version="1.1" id="Layer_1" xmlns="http://www.w3.org/2000/svg" xmlns:xlink="http://www.w3.org/1999/xlink" x="0px" y="0px"
	 width="32px" height="32px" viewBox="0 0 32 32" enable-background="new 0 0 32 32" xml:space="preserve">
<g>
	<g>
		<path fill="#666666" stroke="#000000" stroke-width="0.5" stroke-miterlimit="10" d="M15.5,1c-5.2,0-9.3,3.7-9.3,8.2v7.1h2.5V9.2
			h0c0-3.3,3.1-6,6.9-6c3.8,0,6.9,2.7,6.9,6h2.5C24.8,4.7,20.6,1,15.5,1z"/>
	</g>
	<g>
		<g>
			<path fill="#666666" stroke="#000000" stroke-width="0.5" stroke-miterlimit="10" d="M23.6,14.2c-1.1-1.4-2.8-2.2-4.7-2.2h-6.8
				c-1.9,0-3.6,0.9-4.7,2.2H5.9v3.9v2.2v4.6c0,3.4,2.7,6.1,6.1,6.1h6.8c3.4,0,6.1-2.7,6.1-6.1v-4.6v-2.2v-3.9H23.6z M17.3,27.3h-3.1
				l0.8-5.1c-0.9-0.3-1.5-1.1-1.5-2.1c0-1.2,1-2.2,2.2-2.2c1.2,0,2.2,1,2.2,2.2c0,1-0.6,1.8-1.5,2.1L17.3,27.3z"/>
		</g>
	</g>
</g>
<g>
</g>
<g>
</g>
<g>
</g>
<g>
</g>
<g>
</g>
<g>
</g>
<g>
</g>
<g>
</g>
<g>
</g>
<g>
</g>
<g>
</g>
<g>
</g>
<g>
</g>
<g>
</g>
<g>
</g>
</svg>
