<?xml version="1.0" encoding="utf-8"?>
<!-- Generator: Adobe Illustrator 21.0.0, SVG Export Plug-In . SVG Version: 6.00 Build 0)  -->
<svg version="1.1" id="Layer_1" xmlns="http://www.w3.org/2000/svg" xmlns:xlink="http://www.w3.org/1999/xlink" x="0px" y="0px"
	 width="32px" height="32px" viewBox="0 0 32 32" enable-background="new 0 0 32 32" xml:space="preserve">
<g>
	<path fill="#666666" stroke="#000000" stroke-width="0.5" stroke-miterlimit="10" d="M25.7,7.2L23,9.9c0.6,0.9,0.5,2.1-0.2,2.8
		L21,14.4l5.6,5.6c3-3.4,3.4-8.3,1.1-12.1l-0.7,0.7L25.7,7.2z"/>
	<path fill="#666666" stroke="#000000" stroke-width="0.5" stroke-miterlimit="10" d="M19.5,9.4c0.7-0.7,1.9-0.8,2.8-0.2L25,6.6
		l-1.4-1.4l0.7-0.7c-3.8-2.3-8.7-1.9-12.1,1.1l5.6,5.6L19.5,9.4z"/>
	<path fill="#666666" stroke="#000000" stroke-width="0.5" stroke-miterlimit="10" d="M20,15.4l-1.8,1.8c-0.8,0.9-2.3,0.8-3.2-0.1
		c-0.9-0.9-0.9-2.3-0.1-3.2l1.8-1.8l-5.7-5.7L4.6,13c-4,4-4,10.5,0,14.6c4,4,10.5,4,14.6,0l6.5-6.5L20,15.4z"/>
	<path fill="#666666" stroke="#000000" stroke-width="0.5" stroke-miterlimit="10" d="M19.4,10.8l-0.7,0.7l-1.3,1.3l-1.1,1.1
		c-0.5,0.5-0.5,1.4,0,2c0.5,0.5,1.4,0.5,2,0l1.1-1.1l1.3-1.3l0.7-0.7c0.5-0.5,0.5-1.4,0-1.9C20.8,10.3,19.9,10.3,19.4,10.8z"/>
	<polygon fill="#666666" stroke="#000000" stroke-width="0.5" stroke-miterlimit="10" points="25.1,4.2 24.7,4.6 24.1,5.1 25.3,6.3 
		25.8,6.8 26.9,7.9 27.4,7.4 27.8,6.9 	"/>
	
		<rect x="26.2" y="4" transform="matrix(0.7071 -0.7071 0.7071 0.7071 4.6037 20.6615)" fill="#666666" stroke="#000000" stroke-width="0.5" stroke-miterlimit="10" width="2.2" height="1.5"/>
</g>
<g>
</g>
<g>
</g>
<g>
</g>
<g>
</g>
<g>
</g>
<g>
</g>
<g>
</g>
<g>
</g>
<g>
</g>
<g>
</g>
<g>
</g>
<g>
</g>
<g>
</g>
<g>
</g>
<g>
</g>
</svg>
