<?xml version="1.0" encoding="utf-8"?>
<!-- Generator: Adobe Illustrator 21.0.0, SVG Export Plug-In . SVG Version: 6.00 Build 0)  -->
<svg version="1.1" id="Layer_1" xmlns="http://www.w3.org/2000/svg" xmlns:xlink="http://www.w3.org/1999/xlink" x="0px" y="0px"
	 width="32px" height="32px" viewBox="0 0 32 32" enable-background="new 0 0 32 32" xml:space="preserve">
<g>
	<path fill="#666666" stroke="#000000" stroke-width="0.5" stroke-miterlimit="10" d="M11.1,1H8.9v7.1v11.5
		c-0.4-0.2-0.9-0.3-1.3-0.3H6.2c-2,0-3.5,1.6-3.5,3.5c0,2,1.6,3.5,3.5,3.5h1.4c2,0,3.5-1.6,3.5-3.5c0-0.2,0-0.3,0-0.4h0V8.1h16.4v16
		c-0.4-0.2-0.9-0.3-1.3-0.3h-1.4c-2,0-3.5,1.6-3.5,3.5c0,2,1.6,3.5,3.5,3.5h1.4c2,0,3.5-1.6,3.5-3.5c0,0,0,0,0,0l0,0V8.1V1.3V1H11.1
		z"/>
</g>
<g>
</g>
<g>
</g>
<g>
</g>
<g>
</g>
<g>
</g>
<g>
</g>
<g>
</g>
<g>
</g>
<g>
</g>
<g>
</g>
<g>
</g>
<g>
</g>
<g>
</g>
<g>
</g>
<g>
</g>
</svg>
