<?xml version="1.0" encoding="utf-8"?>
<!-- Generator: Adobe Illustrator 21.0.0, SVG Export Plug-In . SVG Version: 6.00 Build 0)  -->
<svg version="1.1" id="Layer_1" xmlns="http://www.w3.org/2000/svg" xmlns:xlink="http://www.w3.org/1999/xlink" x="0px" y="0px"
	 width="32px" height="32px" viewBox="0 0 32 32" enable-background="new 0 0 32 32" xml:space="preserve">
<path fill="#666666" stroke="#000000" stroke-width="0.5" stroke-miterlimit="10" d="M30.9,12.2c-0.1-0.2-0.3-0.6-0.5-1.1
	c-1.2-2.6-3.1-4.4-5.6-5.7c-0.7-0.4-1.5-0.5-2.2-0.5c0,0,0,0,0,0c-0.2-0.3-1-0.5-1-0.5c-0.5-0.1-1-0.1-1.4,0c-0.3-0.1-1-0.3-1.8,0
	c-0.4,0-1.1-0.1-1.6,0c-0.4-0.8-1.1-2.1-1.1-2.1s-0.5,0-0.6-0.5c-0.1-0.6,0-0.4-0.3-0.5s-0.5,0-0.7,0.1c-0.2,0.1-0.5,0.3-0.7,0.1
	c-0.2-0.2-0.3-0.1-0.5,0.2c-0.2,0.3-0.4,0.5-0.5,0.6c0,0.2-0.2,0.3,0,0.6c0,0,0,0.1,0.1,0.1c0.1,0.1,0.1,0.2,0.2,0.3
	c0,0.1,0.1,0.1,0.1,0.1c0.1,0.1,0.1,0.3,0.2,0.4c0,0.1,0,0.1,0,0.1s0.3,0.5,0.5,1.1c-1.7-0.2-3.6,0.8-4,1C4.4,5.8,2,11.2,2,11.2
	C2,11.2,2,11.3,2,11.4l0,0l0,0c-0.5,1.6-0.8,3.1-0.9,4.5l0,0v0c-0.5,6.8,3.7,10.3,4.5,11l0,0c1.4,1.4,2,1.4,2.2,1.4
	c0.1,0,0.1-0.1,0.1-0.1s0.1,0.4,2.2,0.8c0.6,0.6,1.9,0.5,2,0.5c3.6,0.3,3.9-0.5,3.9-0.5c0.4,0.6,3,0,3,0c0,0,0,0,0,0
	c1.2,0.2,4.4-0.8,4.7-1.5c0,0,0,0,0,0c0.2,0.7,2.3-0.8,2.4-1.1c0-0.1,0.4-0.4,0.9-0.9c0.9-0.6,2.6-2.2,3.6-5.1
	C31.9,16.4,31.2,13.2,30.9,12.2z M20.8,14.8c-0.3,0-0.5-0.1-0.7-0.1c-0.8,0-1.5,0.1-2.3,0.2c0,0-0.1,0-0.2,0c-0.1,0-0.1,0-0.2,0
	c-0.3,0-0.4-0.5,0-0.6c0,0,0,0,0,0c0.2-0.8,0.5-1.5,0.8-2.3c0.2-0.5,0.3-1.1,0.6-1.5c0.2-0.3,0.5-0.7,1-0.6c0.1,0,0.2,0,0.2,0.1
	c0.4,0.2,0.5,0.6,0.7,1c0.4,0.7,1,1.3,1.2,2c0.1,0.4,0.3,1.1,0,1.5C21.7,14.8,21.3,14.8,20.8,14.8z M16.5,18.6
	c-0.3,0-0.6,0.1-0.9,0.1c-0.7,0.1-1.5,0.2-2.2-0.1c-0.2-0.1-0.2-0.2-0.2-0.4c-0.2-0.1-0.1-0.4,0.1-0.5c0,0,0.1-0.1,0.2-0.1
	c0.2-0.8,0.5-1.5,0.7-2.3c0.2-0.5,0.2-1.2,0.6-1.6c0.4-0.3,0.7-0.3,1.1,0.1c0,0,0.1,0.1,0.1,0.1c0.5,0.6,0.9,1.1,1.3,1.8
	c0.2,0.3,0.4,0.6,0.5,1c0,0.3,0.1,0.6,0.2,0.9c0.1,0.4-0.1,0.5-0.5,0.6C17.2,18.3,16.9,18.5,16.5,18.6
	C16.5,18.6,16.5,18.6,16.5,18.6z M11.1,14.8c-0.1,0-0.3,0-0.4,0c-0.8,0-1.6,0-2.4-0.2c-0.3-0.1-0.2-0.4,0-0.5c0-0.1,0.1-0.2,0.2-0.2
	c0.3-0.1,0.6-0.7,0.7-1c0.2-0.4,0.4-0.7,0.6-1.1c0.3-0.5,0.6-1.1,1-1.5c0.4-0.3,0.7-0.3,1-0.1c0.5,0.3,0.8,1.3,0.9,1.8
	c0.1,0.3,0.3,0.7,0.3,1c0,0.3,0,0.6,0.1,0.9c0.1,0.4,0,0.7-0.5,0.8C12.2,14.8,11.6,14.8,11.1,14.8z M23.3,22
	c-0.1,0.2-0.5,0.4-0.8,0.3c-0.3-0.1-0.7,0-0.9,0.2c-0.6,0.3-0.2,0.5-0.1,0.9c0,0.3-0.2,0.4-0.5,0.5c-0.1,0-0.2,0.1-0.3,0.2
	c-0.2,0.1-0.6,0.2-0.8,0.3c-0.3,0.1-0.6,0.2-0.9,0.3c-0.4,0.2-0.8,0.4-1.3,0.4c-0.5,0-0.5-0.4-0.6-0.7c-0.1-0.2-0.2-0.3-0.4-0.3
	c-0.2,0-0.3,0-0.6,0c-0.6,0.1-0.7,0.2-0.7,0.6c0,0.3-0.1,0.5-0.5,0.6c-0.2,0-0.4,0-0.5-0.1C14,25,13.5,25,13.1,24.9
	c-0.7-0.1-1.4-0.3-2.1-0.5c-0.1,0-0.2-0.1-0.4-0.1c-1-0.4-1.5-1.2-2.1-1.8C8.2,22,8.1,21.5,7.8,21c-0.3-0.5-0.5-1-0.4-1.5
	c0-0.2,0.4-0.2,0.5-0.1c0.3,0.3,0.5,0.6,0.8,0.9c0.3,0.3,0.8,0.6,1.2,0.9c0.3,0.2,0.6,0.4,0.8,0.6c0.4,0.3,0.7,0.6,0.8,1
	c0.1,0.1,0.3,0.4,0.7,0.2c0.1-0.1,0.2-0.3,0.3-0.4c0.1-0.1,0.3-0.2,0.6-0.2c0.5,0,0.9,0.1,1.4,0.1c0.7,0,1.3-0.1,2-0.2
	c0,0,0.1,0,0.1,0c0.5-0.1,1.4-0.3,1.7,0c0.1,0.1,0.2,0.4,0.4,0.4c0.4,0,0.8-0.2,0.8-0.5c0-0.1-0.1-0.3,0-0.4
	c0.1-0.2,0.2-0.3,0.5-0.3c0.4-0.1,0.8-0.2,1.1-0.3c0.1,0,0.2-0.1,0.4-0.1c0.5-0.2,0.9-0.5,1.2-0.8c0.3-0.2,0.8-0.4,0.9-0.7
	c0-0.2,0.5-0.2,0.5,0c0.2,0,0.4,0,0.4,0.2c0,0.4-0.3,0.7-0.5,1.1C23.6,21.1,23.6,21.6,23.3,22z"/>
<g>
</g>
<g>
</g>
<g>
</g>
<g>
</g>
<g>
</g>
<g>
</g>
<g>
</g>
<g>
</g>
<g>
</g>
<g>
</g>
<g>
</g>
<g>
</g>
<g>
</g>
<g>
</g>
<g>
</g>
</svg>
