<?xml version="1.0" encoding="utf-8"?>
<!-- Generator: Adobe Illustrator 21.0.0, SVG Export Plug-In . SVG Version: 6.00 Build 0)  -->
<svg version="1.1" id="Layer_1" xmlns="http://www.w3.org/2000/svg" xmlns:xlink="http://www.w3.org/1999/xlink" x="0px" y="0px"
	 width="32px" height="32px" viewBox="0 0 32 32" enable-background="new 0 0 32 32" xml:space="preserve">
<g>
	<path fill="#666666" stroke="#000000" stroke-width="0.5" stroke-miterlimit="10" d="M8.1,23.7l-2.6,2.6l1.2,1.2l2.6-2.6
		c1.8,1.4,4,2.3,6.5,2.3v4h1.8v-4.1c2.3-0.3,4.4-1.3,6-2.7l3.1,3.1l1.2-1.2l-3.1-3.1c1.4-1.7,2.3-3.9,2.5-6.3H31v-1.8h-3.6
		c-0.2-2.2-1-4.3-2.3-6L28,6.3L26.7,5l-2.8,2.8c-1.7-1.6-3.9-2.7-6.3-2.9V1.2h-1.8v3.5c-2.6,0.1-4.9,1-6.8,2.6L6.8,5L5.5,6.3
		l2.3,2.3c-1.6,1.8-2.6,4-2.8,6.5H1v1.8h4.1C5.3,19.5,6.4,21.9,8.1,23.7z"/>
</g>
<g>
</g>
<g>
</g>
<g>
</g>
<g>
</g>
<g>
</g>
<g>
</g>
<g>
</g>
<g>
</g>
<g>
</g>
<g>
</g>
<g>
</g>
<g>
</g>
<g>
</g>
<g>
</g>
<g>
</g>
</svg>
