<?xml version="1.0" encoding="utf-8"?>
<!-- Generator: Adobe Illustrator 21.0.0, SVG Export Plug-In . SVG Version: 6.00 Build 0)  -->
<svg version="1.1" id="Layer_1" xmlns="http://www.w3.org/2000/svg" xmlns:xlink="http://www.w3.org/1999/xlink" x="0px" y="0px"
	 width="32px" height="32px" viewBox="0 0 32 32" enable-background="new 0 0 32 32" xml:space="preserve">
<g>
	<path fill="#666666" stroke="#000000" stroke-width="0.5" stroke-miterlimit="10" d="M24.8,14.5c-0.2-1.1-0.4-2.1-0.9-2.9
		c-0.4-0.7-0.8-1.3-1.3-1.9c-1.7-1.8-4.1-3-6.8-3c-3.5,0-6.6,2-8.2,4.9c0,0,0,0,0.1,0c1.7,0.5,3,1.7,3.7,3.4c0.8,0.3,1.5,0.8,2,1.6
		c0.4,0.8,0.5,1.7,0.3,2.6c-0.4,1.4-1.8,2.5-3.3,2.5c-0.3,0-0.6,0-0.9-0.1c-0.2,0.1-0.4,0.3-0.6,0.4c1.7,2,4.2,3.2,7,3.2
		c1.9,0,3.7-0.6,5.2-1.6c0.4-0.3,0.7-0.5,1.1-0.8c-0.4,0.1-0.8,0.2-1.2,0.1c-1-0.3-1.5-1.3-1.2-2.3c0.1-0.4,0.4-0.8,0.8-1.1
		c-0.1-0.6,0-1.1,0.2-1.7C21.1,15.9,22.8,14.6,24.8,14.5z"/>
	<path fill="#666666" stroke="#000000" stroke-width="0.5" stroke-miterlimit="10" d="M5.3,21.5c1.1,0.3,2.3,0.2,3.4-0.3
		c0.2-0.1,0.5-0.3,0.7-0.4l0.1-0.1l0.2,0c1.4,0.4,2.8-0.4,3.2-1.7c0.2-0.7,0.1-1.4-0.2-2c-0.3-0.6-0.9-1-1.5-1.2l-0.2,0l0-0.1
		c-0.5-1.4-1.6-2.4-3-2.8c0,0-0.1,0-0.1,0c-0.4-0.1-0.8-0.1-1.1-0.1c-2,0-3.8,1.3-4.4,3.3C2,16.5,2,17.2,2,17.8l0,0.2l-0.2,0.1
		c-0.4,0.2-0.7,0.5-0.8,1c-0.1,0.4-0.1,0.8,0.1,1.2c0.2,0.4,0.5,0.6,0.9,0.7c0.4,0.1,0.9,0,1.3-0.2l0.1-0.1l0.1,0.1
		C4.2,21.1,4.7,21.4,5.3,21.5z"/>
	<path fill="#666666" stroke="#000000" stroke-width="0.5" stroke-miterlimit="10" d="M29.3,17.6l-0.2,0L29,17.5
		c-0.5-1.2-1.5-2.1-2.8-2.3C25.9,15,25.6,15,25.2,15c0,0,0,0-0.1,0c0,0,0,0,0,0c-1.8,0.1-3.3,1.4-3.7,3c-0.1,0.6-0.2,1.1,0,1.7
		l0,0.2L21.2,20c-0.3,0.2-0.6,0.5-0.7,0.8c-0.2,0.7,0.3,1.4,1,1.6c0.4,0.1,0.8,0,1.1-0.2l0.2-0.1l0.2,0.1c0,0,0.1,0.1,0.1,0.1
		c0.1,0.1,0.2,0.1,0.3,0.2c0.3,0.2,0.6,0.3,1,0.4c1.2,0.3,2.6,0,3.6-0.8l0.1-0.1l0.2,0c1.2,0.3,2.4-0.5,2.7-1.6
		c0.1-0.6,0-1.2-0.3-1.7C30.4,18.1,29.9,17.8,29.3,17.6z"/>
</g>
<g>
</g>
<g>
</g>
<g>
</g>
<g>
</g>
<g>
</g>
<g>
</g>
<g>
</g>
<g>
</g>
<g>
</g>
<g>
</g>
<g>
</g>
<g>
</g>
<g>
</g>
<g>
</g>
<g>
</g>
</svg>
