<?xml version="1.0" encoding="utf-8"?>
<!-- Generator: Adobe Illustrator 21.0.0, SVG Export Plug-In . SVG Version: 6.00 Build 0)  -->
<svg version="1.1" xmlns="http://www.w3.org/2000/svg" xmlns:xlink="http://www.w3.org/1999/xlink" x="0px" y="0px" width="32px"
	 height="32px" viewBox="0 0 32 32" enable-background="new 0 0 32 32" xml:space="preserve">
<g id="Layer2">
	<g>
		<path fill="#8CC63F" d="M16,30.8C7.9,30.8,1.3,24.1,1.3,16C1.3,7.9,7.9,1.3,16,1.3c8.1,0,14.8,6.6,14.8,14.8
			C30.8,24.1,24.1,30.8,16,30.8z"/>
		<path d="M16,1.5C24,1.5,30.5,8,30.5,16S24,30.5,16,30.5S1.5,24,1.5,16S8,1.5,16,1.5 M16,1C7.7,1,1,7.7,1,16s6.7,15,15,15
			s15-6.7,15-15S24.3,1,16,1L16,1z"/>
	</g>
</g>
<g id="Layer1">
	<g>
		<path d="M19.5,17.7h-6.9l-1.2,2.8c-0.3,0.7-0.4,1.2-0.4,1.6c0,0.3,0.1,0.5,0.4,0.7s0.8,0.3,1.7,0.4v0.5H7.3v-0.5
			c0.7-0.1,1.2-0.3,1.5-0.5c0.4-0.4,0.9-1.3,1.5-2.6l6.3-14.7H17l6.2,14.9c0.5,1.2,1,2,1.4,2.3c0.4,0.4,1,0.6,1.7,0.6v0.5h-7.1v-0.5
			c0.7,0,1.2-0.2,1.4-0.4s0.4-0.4,0.4-0.7c0-0.4-0.2-1-0.5-1.8L19.5,17.7z M19.1,16.7l-3-7.2L13,16.7H19.1z"/>
	</g>
	<g>
	</g>
	<g>
	</g>
	<g>
	</g>
	<g>
	</g>
	<g>
	</g>
	<g>
	</g>
	<g>
	</g>
	<g>
	</g>
	<g>
	</g>
	<g>
	</g>
	<g>
	</g>
	<g>
	</g>
	<g>
	</g>
	<g>
	</g>
	<g>
	</g>
</g>
</svg>
