<?xml version="1.0" encoding="utf-8"?>
<!-- Generator: Adobe Illustrator 21.0.0, SVG Export Plug-In . SVG Version: 6.00 Build 0)  -->
<svg version="1.1" xmlns="http://www.w3.org/2000/svg" xmlns:xlink="http://www.w3.org/1999/xlink" x="0px" y="0px" width="32px"
	 height="32px" viewBox="0 0 32 32" enable-background="new 0 0 32 32" xml:space="preserve">
<g id="Layer2">
	<g>
		<path fill="#8CC63F" d="M16,30.8C7.9,30.8,1.3,24.1,1.3,16C1.3,7.9,7.9,1.3,16,1.3c8.1,0,14.8,6.6,14.8,14.8
			C30.8,24.1,24.1,30.8,16,30.8z"/>
		<path d="M16,1.5C24,1.5,30.5,8,30.5,16S24,30.5,16,30.5S1.5,24,1.5,16S8,1.5,16,1.5 M16,1C7.7,1,1,7.7,1,16s6.7,15,15,15
			s15-6.7,15-15S24.3,1,16,1L16,1z"/>
	</g>
</g>
<g id="Layer1">
	<g>
		<g>
			<path fill="#3C4B54" d="M26,14.2c-0.2-0.8-0.4-1.5-0.7-2.2c-2.6,0.6-3.5-1.7-2.4-3.3c-0.4-0.6-1-1.1-1.8-1.3
				C20,9.1,17,8.3,17.3,6c-0.8,0-1.7,0-2.5,0c0.2,2.5-2.7,3-4,1.5c-0.6,0.4-1.5,0.6-1.6,1.5c1.2,1.4,0.1,3.7-2.4,3.1
				c-0.3,0.7-0.5,1.4-0.7,2.2c2.1,0.3,2.1,3.5,0,3.8c0.2,0.8,0.4,1.5,0.7,2.2c2.6-0.6,3.5,1.7,2.4,3.3c0.4,0.6,1,1.1,1.8,1.3
				c1.1-1.7,4.1-0.8,3.8,1.5c0.8,0,1.7,0,2.5,0c-0.2-2.5,2.7-3,4-1.5c0.6-0.4,1.5-0.6,1.6-1.5c-1.2-1.4-0.1-3.7,2.4-3.1
				c0.3-0.7,0.5-1.4,0.7-2.2C23.9,17.5,23.9,14.7,26,14.2z M16,19.9c-2.1,0-3.8-1.7-3.8-3.8c0-2.1,1.7-3.8,3.8-3.8
				c2.1,0,3.8,1.7,3.8,3.8C19.8,18.2,18.1,19.9,16,19.9z"/>
		</g>
	</g>
	<g>
	</g>
	<g>
	</g>
	<g>
	</g>
	<g>
	</g>
	<g>
	</g>
	<g>
	</g>
	<g>
	</g>
	<g>
	</g>
	<g>
	</g>
	<g>
	</g>
	<g>
	</g>
	<g>
	</g>
	<g>
	</g>
	<g>
	</g>
	<g>
	</g>
</g>
</svg>
