<?xml version="1.0" encoding="utf-8"?>
<!-- Generator: Adobe Illustrator 21.0.0, SVG Export Plug-In . SVG Version: 6.00 Build 0)  -->
<svg version="1.1" id="Layer_1" xmlns="http://www.w3.org/2000/svg" xmlns:xlink="http://www.w3.org/1999/xlink" x="0px" y="0px"
	 width="32px" height="32px" viewBox="0 0 32 32" enable-background="new 0 0 32 32" xml:space="preserve">
<g id="Layer2">
	<g>
		<path fill="#8CC63F" d="M16,30.8C7.9,30.8,1.3,24.1,1.3,16S7.9,1.3,16,1.3s14.8,6.6,14.8,14.8C30.8,24.1,24.1,30.8,16,30.8z"/>
		<path d="M16,1.5C24,1.5,30.5,8,30.5,16S24,30.5,16,30.5S1.5,24,1.5,16S8,1.5,16,1.5 M16,1C7.7,1,1,7.7,1,16s6.7,15,15,15
			s15-6.7,15-15S24.3,1,16,1L16,1z"/>
	</g>
</g>
<g id="Layer1">
	<path d="M25,17.8c-0.8-0.3-1.3-1-1.3-1.8s0.5-1.6,1.3-1.8c0.2-0.1,0.4-0.3,0.3-0.6c-0.2-0.9-0.5-1.7-1-2.5
		c-0.1-0.2-0.4-0.3-0.6-0.2c-0.3,0.2-0.6,0.2-0.9,0.2c-1.1,0-1.9-0.9-1.9-1.9c0-0.3,0.1-0.6,0.2-0.9c0.1-0.2,0-0.5-0.2-0.6
		c-0.8-0.5-1.6-0.8-2.5-1c-0.2-0.1-0.5,0.1-0.6,0.3c-0.3,0.8-1,1.3-1.8,1.3S14.4,7.8,14.2,7c-0.1-0.2-0.3-0.4-0.6-0.3
		c-0.9,0.2-1.7,0.5-2.5,1c-0.2,0.1-0.3,0.4-0.2,0.6c0.2,0.3,0.2,0.6,0.2,0.9c0,1.1-0.9,1.9-1.9,1.9c-0.3,0-0.6-0.1-0.9-0.2
		c-0.2-0.1-0.5,0-0.6,0.2c-0.5,0.8-0.8,1.6-1,2.5c-0.1,0.2,0.1,0.5,0.3,0.6c0.8,0.3,1.3,1,1.3,1.8S7.8,17.5,7,17.8
		c-0.2,0.1-0.4,0.3-0.3,0.6c0.2,0.9,0.5,1.7,1,2.5c0.1,0.2,0.4,0.3,0.6,0.2c0.3-0.2,0.6-0.2,0.9-0.2c1.1,0,1.9,0.9,1.9,1.9
		c0,0.3-0.1,0.6-0.2,0.9c-0.1,0.2,0,0.5,0.2,0.6c0.8,0.5,1.6,0.8,2.5,1c0,0,0.1,0,0.1,0c0.2,0,0.4-0.1,0.5-0.3
		c0.3-0.8,1-1.3,1.8-1.3s1.6,0.5,1.8,1.3c0.1,0.2,0.3,0.4,0.6,0.3c0.9-0.2,1.7-0.5,2.5-1c0.2-0.1,0.3-0.4,0.2-0.6
		c-0.2-0.3-0.2-0.6-0.2-0.9c0-1.1,0.9-1.9,1.9-1.9c0.3,0,0.6,0.1,0.9,0.2c0.2,0.1,0.5,0,0.6-0.2c0.5-0.8,0.8-1.6,1-2.5
		C25.4,18.1,25.2,17.9,25,17.8z M16.2,19.6c-2,0-3.6-1.6-3.6-3.6s1.6-3.6,3.6-3.6s3.6,1.6,3.6,3.6S18.2,19.6,16.2,19.6z"/>
</g>
</svg>
