<?xml version="1.0" encoding="utf-8"?>
<!-- Generator: Adobe Illustrator 21.0.0, SVG Export Plug-In . SVG Version: 6.00 Build 0)  -->
<svg version="1.1" xmlns="http://www.w3.org/2000/svg" xmlns:xlink="http://www.w3.org/1999/xlink" x="0px" y="0px" width="32px"
	 height="32px" viewBox="0 0 32 32" enable-background="new 0 0 32 32" xml:space="preserve">
<g id="Layer4">
	<g>
		<g>
			<path d="M20.1,15.9c1.6-0.5,3-1.5,4-2.9c1-1.3,1.6-3,1.7-4.7c0.1,1.7-0.4,3.5-1.4,4.9c-0.9,1.5-2.4,2.7-4,3.4L20.1,15.9z"/>
			<g>
				<polygon points="21.1,17 17.3,16.8 20.7,15.1 				"/>
			</g>
		</g>
	</g>
	<circle fill="none" cx="18.8" cy="8.8" r="7.3"/>
</g>
<g id="Layer3">
	<g>
		<g>
			<path d="M17.4,20.4c0.5,1.6,1.5,3,2.9,4c1.3,1,3,1.6,4.7,1.7c-1.7,0.1-3.5-0.4-4.9-1.4c-1.5-0.9-2.7-2.4-3.4-4L17.4,20.4z"/>
			<g>
				<polygon points="16.3,21.3 16.5,17.5 18.2,20.9 				"/>
			</g>
		</g>
	</g>
	<circle fill="none" cx="23.8" cy="18.8" r="7.3"/>
</g>
<g id="Layer2">
	<g>
		<g>
			<path d="M12.9,17.6c-1.6,0.5-3,1.5-4,2.9c-1,1.3-1.6,3-1.7,4.7c-0.1-1.7,0.4-3.5,1.4-4.9c0.9-1.5,2.4-2.7,4-3.4L12.9,17.6z"/>
			<g>
				<polygon points="11.9,16.5 15.7,16.8 12.3,18.4 				"/>
			</g>
		</g>
	</g>
	<circle fill="none" cx="14.8" cy="24.8" r="7.3"/>
</g>
<g id="Layer1">
	<g>
		<g>
			<path d="M15.6,13.1c-0.5-1.6-1.5-3-2.9-4c-1.3-1-3-1.6-4.7-1.7c1.7-0.1,3.5,0.4,4.9,1.4c1.5,0.9,2.7,2.4,3.4,4L15.6,13.1z"/>
			<g>
				<polygon points="16.7,12.2 16.5,16 14.8,12.6 				"/>
			</g>
		</g>
	</g>
	<circle fill="none" cx="8.8" cy="14.8" r="7.3"/>
	<g>
	</g>
	<g>
	</g>
	<g>
	</g>
	<g>
	</g>
	<g>
	</g>
	<g>
	</g>
	<g>
	</g>
	<g>
	</g>
	<g>
	</g>
	<g>
	</g>
	<g>
	</g>
	<g>
	</g>
	<g>
	</g>
	<g>
	</g>
	<g>
	</g>
	<g>
	</g>
</g>
</svg>
