<?xml version="1.0" encoding="utf-8"?>
<!-- Generator: Adobe Illustrator 21.0.0, SVG Export Plug-In . SVG Version: 6.00 Build 0)  -->
<svg version="1.1" xmlns="http://www.w3.org/2000/svg" xmlns:xlink="http://www.w3.org/1999/xlink" x="0px" y="0px" width="200px"
	 height="200px" viewBox="0 0 200 200" enable-background="new 0 0 200 200" xml:space="preserve">
<g id="Layer1">
	<g>
		<circle fill="none" cx="100" cy="100" r="95"/>
	</g>
	<g>
		<path d="M80.9,14c36.9,0,66.9,30,66.9,66.9s-30,66.9-66.9,66.9S14,117.7,14,80.9S44,14,80.9,14 M80.9,13C43.4,13,13,43.4,13,80.9
			s30.4,67.9,67.9,67.9s67.9-30.4,67.9-67.9S118.3,13,80.9,13L80.9,13z"/>
	</g>
</g>
<g id="Layer2">
	<g>
		<circle fill="none" cx="100" cy="100" r="95"/>
	</g>
	<g>
		<path d="M119.1,52.3c36.9,0,66.9,30,66.9,66.9S156,186,119.1,186s-66.9-30-66.9-66.9S82.3,52.3,119.1,52.3 M119.1,51.3
			c-37.5,0-67.9,30.4-67.9,67.9S81.7,187,119.1,187s67.9-30.4,67.9-67.9S156.6,51.3,119.1,51.3L119.1,51.3z"/>
	</g>
	<g>
	</g>
	<g>
	</g>
	<g>
	</g>
	<g>
	</g>
	<g>
	</g>
	<g>
	</g>
	<g>
	</g>
	<g>
	</g>
	<g>
	</g>
	<g>
	</g>
	<g>
	</g>
	<g>
	</g>
	<g>
	</g>
	<g>
	</g>
	<g>
	</g>
</g>
</svg>
