<?xml version="1.0" encoding="utf-8"?>
<!-- Generator: Adobe Illustrator 21.0.0, SVG Export Plug-In . SVG Version: 6.00 Build 0)  -->
<svg version="1.1" xmlns="http://www.w3.org/2000/svg" xmlns:xlink="http://www.w3.org/1999/xlink" x="0px" y="0px" width="200px"
	 height="200px" viewBox="0 0 200 200" enable-background="new 0 0 200 200" xml:space="preserve">
<g id="Layer3">
	<circle fill="none" stroke="#FFFFFF" stroke-miterlimit="10" cx="101" cy="102" r="31"/>
	<path fill="none" stroke="#000000" stroke-width="6" stroke-miterlimit="10" d="M122.7,123.7c-5.4,5.4-13.2,8.9-21.7,8.9
		s-16.3-3.5-21.7-8.9c-5.8-5.4-9.3-13.2-9.3-21.7s3.5-16.3,8.9-21.7c5.4-5.4,13.2-8.9,21.7-8.9s16.3,3.5,21.7,8.9"/>
</g>
<g id="Layer2">
	<circle fill="none" stroke="#FFFFFF" stroke-miterlimit="10" cx="101.5" cy="102.5" r="62.5"/>
	<path fill="none" stroke="#000000" stroke-width="6" stroke-miterlimit="10" d="M58,58.5c11.4-11.4,26.6-17.9,44-17.9
		s32.6,7.1,44,17.9c11.4,10.9,17.9,26.6,17.9,44s-7.1,32.6-17.9,44c-10.9,11.4-26.6,17.9-44,17.9s-32.6-7.1-44-17.9"/>
</g>
<g id="Layer1">
	<circle fill="none" stroke="#FFFFFF" stroke-miterlimit="10" cx="102.1" cy="100.4" r="91.9"/>
	<path fill="none" stroke="#000000" stroke-width="7" stroke-miterlimit="10" d="M166,166.3c-16.8,16.8-40.4,27.3-65.9,27.3
		s-49.1-10.6-65.9-27.3S7,125.9,7,100.4s10.6-49.1,27.3-65.9S74.7,7.3,100.2,7.3s49.1,10.6,65.9,27.3"/>
	<g>
	</g>
	<g>
	</g>
	<g>
	</g>
	<g>
	</g>
	<g>
	</g>
	<g>
	</g>
	<g>
	</g>
	<g>
	</g>
	<g>
	</g>
	<g>
	</g>
	<g>
	</g>
	<g>
	</g>
	<g>
	</g>
	<g>
	</g>
	<g>
	</g>
</g>
</svg>
