<?xml version="1.0" encoding="utf-8"?>
<!-- Generator: Adobe Illustrator 21.0.0, SVG Export Plug-In . SVG Version: 6.00 Build 0)  -->
<svg version="1.1" xmlns="http://www.w3.org/2000/svg" xmlns:xlink="http://www.w3.org/1999/xlink" x="0px" y="0px" width="32px"
	 height="32px" viewBox="0 0 32 32" enable-background="new 0 0 32 32" xml:space="preserve">
<g id="Layer3">
	<circle fill="none" stroke="#FFFFFF" stroke-miterlimit="10" cx="16" cy="16" r="8"/>
	<path fill="none" stroke="#000000" stroke-miterlimit="10" d="M21.6,21.6c-1.4,1.4-3.4,2.3-5.6,2.3s-4.2-0.9-5.6-2.3
		C8.9,20.2,8,18.2,8,16s0.9-4.2,2.3-5.6s3.4-2.3,5.6-2.3s4.2,0.9,5.6,2.3"/>
</g>
<g id="Layer2">
	<circle fill="none" stroke="#FFFFFF" stroke-miterlimit="10" cx="16" cy="16" r="11.5"/>
	<path fill="none" stroke="#000000" stroke-miterlimit="10" d="M8,7.9c2.1-2.1,4.9-3.3,8.1-3.3s6,1.3,8.1,3.3s3.3,4.9,3.3,8.1
		s-1.3,6-3.3,8.1s-4.9,3.3-8.1,3.3s-6-1.3-8.1-3.3"/>
</g>
<g id="Layer1">
	<circle fill="none" stroke="#FFFFFF" stroke-miterlimit="10" cx="16.3" cy="16" r="14.8"/>
	<path fill="none" stroke="#000000" stroke-miterlimit="10" d="M26.6,26.6C23.9,29.3,20.1,31,16,31s-7.9-1.7-10.6-4.4S1,20.1,1,16
		S2.7,8.1,5.4,5.4S11.9,1,16,1s7.9,1.7,10.6,4.4"/>
	<g>
	</g>
	<g>
	</g>
	<g>
	</g>
	<g>
	</g>
	<g>
	</g>
	<g>
	</g>
	<g>
	</g>
	<g>
	</g>
	<g>
	</g>
	<g>
	</g>
	<g>
	</g>
	<g>
	</g>
	<g>
	</g>
	<g>
	</g>
	<g>
	</g>
</g>
</svg>
