<?xml version="1.0" encoding="utf-8"?>
<!-- Generator: Adobe Illustrator 21.0.0, SVG Export Plug-In . SVG Version: 6.00 Build 0)  -->
<svg version="1.1" xmlns="http://www.w3.org/2000/svg" xmlns:xlink="http://www.w3.org/1999/xlink" x="0px" y="0px" width="32px"
	 height="32px" viewBox="0 0 32 32" enable-background="new 0 0 32 32" xml:space="preserve">
<g id="Layer2">
	<path fill="#FFFFFF" stroke="#000000" stroke-width="0.5" stroke-miterlimit="10" d="M29.7,24.7c-0.5-0.2-0.8-0.6-0.8-1.1
		s0.3-0.9,0.8-1.1c0.1-0.1,0.2-0.2,0.2-0.3c-0.1-0.5-0.3-1-0.6-1.4c-0.1-0.1-0.2-0.2-0.4-0.1c-0.2,0.1-0.4,0.1-0.5,0.1
		c-0.6,0-1.1-0.5-1.1-1.1c0-0.2,0.1-0.4,0.1-0.5c0.1-0.1,0-0.3-0.1-0.4c-0.4-0.3-0.9-0.5-1.4-0.6c-0.1,0-0.3,0-0.3,0.2
		c-0.2,0.5-0.6,0.8-1.1,0.8s-0.9-0.3-1.1-0.8c-0.1-0.1-0.2-0.2-0.3-0.2c-0.5,0.1-1,0.3-1.4,0.6c-0.1,0.1-0.2,0.2-0.1,0.4
		c0.1,0.2,0.1,0.4,0.1,0.5c0,0.6-0.5,1.1-1.1,1.1c-0.2,0-0.4-0.1-0.5-0.1c-0.1-0.1-0.3,0-0.4,0.1c-0.3,0.4-0.5,0.9-0.6,1.4
		c0,0.1,0,0.3,0.2,0.3c0.5,0.2,0.8,0.6,0.8,1.1s-0.3,0.9-0.8,1.1c-0.1,0.1-0.2,0.2-0.2,0.3c0.1,0.5,0.3,1,0.6,1.4
		c0.1,0.1,0.2,0.2,0.4,0.1c0.2-0.1,0.4-0.1,0.5-0.1c0.6,0,1.1,0.5,1.1,1.1c0,0.2-0.1,0.4-0.1,0.5c-0.1,0.1,0,0.3,0.1,0.4
		c0.4,0.3,0.9,0.5,1.4,0.6c0,0,0.1,0,0.1,0c0.1,0,0.2-0.1,0.3-0.2c0.2-0.5,0.6-0.8,1.1-0.8s0.9,0.3,1.1,0.8c0.1,0.1,0.2,0.2,0.3,0.2
		c0.5-0.1,1-0.3,1.4-0.6c0.1-0.1,0.2-0.2,0.1-0.4c-0.1-0.2-0.1-0.4-0.1-0.5c0-0.6,0.5-1.1,1.1-1.1c0.2,0,0.4,0.1,0.5,0.1
		c0.1,0.1,0.3,0,0.4-0.1c0.3-0.4,0.5-0.9,0.6-1.4C29.9,24.9,29.8,24.7,29.7,24.7z M24.6,25c-0.1,0-0.1,0-0.2,0
		c-0.7-0.1-1.2-0.7-1.2-1.4s0.5-1.3,1.2-1.4c0.1,0,0.1,0,0.2,0c0.8,0,1.4,0.6,1.4,1.4C26,24.4,25.4,25,24.6,25z"/>
</g>
<g id="Layer1">
	<g id="Layer2_1_">
		<path fill="#FFFFFF" stroke="#000000" stroke-width="0.5" stroke-miterlimit="10" d="M9,24.2L9,24.2L9,24.2z"/>
		<path fill="#FFFFFF" stroke="#000000" stroke-width="0.5" stroke-miterlimit="10" d="M21.1,16.1c-0.9-0.3-1.4-1.1-1.4-2
			c0-0.9,0.6-1.7,1.4-2c0.3-0.1,0.4-0.4,0.3-0.6c-0.2-0.9-0.6-1.8-1.1-2.7c-0.1-0.2-0.5-0.3-0.7-0.2C19.3,8.9,19,9,18.7,9
			c-1.1,0-2.1-0.9-2.1-2.1c0-0.4,0.1-0.7,0.3-1c0.1-0.2,0-0.6-0.2-0.7c-0.8-0.5-1.7-0.9-2.7-1.1c-0.3-0.1-0.5,0.1-0.6,0.3
			c-0.3,0.9-1.1,1.4-2,1.4c-0.9,0-1.7-0.6-2-1.4C9.3,4.2,9.1,4.1,8.8,4.1C7.9,4.4,7,4.7,6.2,5.2C5.9,5.4,5.8,5.7,6,5.9
			c0.2,0.3,0.3,0.7,0.3,1C6.2,8,5.3,9,4.1,9c-0.4,0-0.7-0.1-1-0.3c-0.2-0.1-0.6,0-0.7,0.2C2,9.7,1.6,10.6,1.4,11.6
			c-0.1,0.3,0.1,0.5,0.3,0.6c0.9,0.3,1.4,1.1,1.4,2c0,0.9-0.6,1.7-1.4,2c-0.3,0.1-0.4,0.4-0.3,0.6c0.2,0.9,0.6,1.8,1.1,2.7
			c0.1,0.2,0.5,0.3,0.7,0.2c0.3-0.2,0.7-0.3,1-0.3c1.1,0,2.1,0.9,2.1,2.1c0,0.4-0.1,0.7-0.3,1c-0.1,0.2,0,0.6,0.2,0.7
			c0.8,0.5,1.7,0.9,2.7,1.1c0,0,0.1,0,0.1,0c0.2,0,0.4-0.1,0.5-0.4c0.3-0.9,1.1-1.4,2-1.4c0.9,0,1.7,0.6,2,1.4
			c0.1,0.3,0.4,0.4,0.6,0.3c0.9-0.2,1.8-0.6,2.7-1.1c0.2-0.1,0.3-0.5,0.2-0.7c-0.2-0.3-0.3-0.7-0.3-1c0-1.1,0.9-2.1,2.1-2.1
			c0.4,0,0.7,0.1,1,0.3c0.2,0.1,0.6,0,0.7-0.2c0.5-0.8,0.9-1.7,1.1-2.7C21.5,16.4,21.3,16.2,21.1,16.1z M11.7,16.8
			c-0.1,0-0.3,0-0.4,0C10,16.6,9,15.5,9,14.2s1-2.4,2.3-2.5c0.1,0,0.3,0,0.4,0c1.4,0,2.6,1.1,2.6,2.6S13.1,16.8,11.7,16.8z"/>
	</g>
</g>
</svg>
